<svg width="36" height="36" viewBox="0 0 36 36" fill="none" xmlns="http://www.w3.org/2000/svg">
<path d="M31.5 13.5H24C21.525 13.5 19.5 15.525 19.5 18C19.5 20.475 21.525 22.5 24 22.5H31.5C33.975 22.5 36 20.475 36 18C36 15.525 33.975 13.5 31.5 13.5ZM31.5 21H24C22.35 21 21 19.65 21 18C21 16.35 22.35 15 24 15H31.5C33.15 15 34.5 16.35 34.5 18C34.5 19.65 33.15 21 31.5 21ZM24 9H31.5C33.975 9 36 6.975 36 4.5C36 2.025 33.975 0 31.5 0H24C21.525 0 19.5 2.025 19.5 4.5C19.5 6.975 21.525 9 24 9ZM24 1.5H31.5C33.15 1.5 34.5 2.85 34.5 4.5C34.5 6.15 33.15 7.5 31.5 7.5H24C22.35 7.5 21 6.15 21 4.5C21 2.85 22.35 1.5 24 1.5ZM31.5 27H24C21.525 27 19.5 29.025 19.5 31.5C19.5 33.975 21.525 36 24 36H31.5C33.975 36 36 33.975 36 31.5C36 29.025 33.975 27 31.5 27ZM31.5 34.5H24C22.35 34.5 21 33.15 21 31.5C21 29.85 22.35 28.5 24 28.5H31.5C33.15 28.5 34.5 29.85 34.5 31.5C34.5 33.15 33.15 34.5 31.5 34.5ZM11.25 19.5H5.25C2.355 19.5 0 21.855 0 24.75V30.75C0 33.645 2.355 36 5.25 36H11.25C14.145 36 16.5 33.645 16.5 30.75V24.75C16.5 21.855 14.145 19.5 11.25 19.5ZM15 30.75C15 32.82 13.32 34.5 11.25 34.5H5.25C3.18 34.5 1.5 32.82 1.5 30.75V24.75C1.5 22.68 3.18 21 5.25 21H11.25C13.32 21 15 22.68 15 24.75V30.75ZM11.25 0H5.25C2.355 0 0 2.355 0 5.25V11.25C0 14.145 2.355 16.5 5.25 16.5H11.25C14.145 16.5 16.5 14.145 16.5 11.25V5.25C16.5 2.355 14.145 0 11.25 0ZM15 11.25C15 13.32 13.32 15 11.25 15H5.25C3.18 15 1.5 13.32 1.5 11.25V5.25C1.5 3.18 3.18 1.5 5.25 1.5H11.25C13.32 1.5 15 3.18 15 5.25V11.25Z" fill="#1465F1"/>
</svg>
