<svg width="36" height="36" viewBox="0 0 36 36" fill="none" xmlns="http://www.w3.org/2000/svg">
<g clip-path="url(#clip0_41_5)">
<path d="M34.5009 20.6221C33.9195 19.8539 33.6065 18.93 33.6065 17.9818C33.6065 17.0337 33.9195 16.1097 34.5009 15.3416L35.7008 13.7576C35.8462 13.5659 35.9422 13.3441 35.9808 13.1102C36.0194 12.8763 35.9996 12.637 35.9231 12.4119C35.8465 12.1867 35.7153 11.982 35.5402 11.8146C35.3651 11.6471 35.151 11.5217 34.9155 11.4484L32.9852 10.8478C32.0396 10.5551 31.2154 9.98341 30.631 9.21484C30.0465 8.44628 29.732 7.52041 29.7325 6.57024V4.61838C29.7326 4.38167 29.6741 4.1483 29.5618 3.93731C29.4496 3.72633 29.2867 3.5437 29.0866 3.40433C28.8864 3.26497 28.6547 3.17282 28.4101 3.1354C28.1656 3.09798 27.9154 3.11636 27.6797 3.18903L25.7243 3.7896C24.78 4.08049 23.7638 4.07903 22.8204 3.78544C21.8771 3.49185 21.0547 2.9211 20.4706 2.15454L19.2691 0.581047C19.1164 0.399665 18.9232 0.253311 18.7036 0.152755C18.4839 0.0521988 18.2435 0 18 0C17.7565 0 17.5161 0.0521988 17.2964 0.152755C17.0768 0.253311 16.8836 0.399665 16.7309 0.581047L15.5294 2.15754C14.9453 2.92411 14.1229 3.49485 13.1796 3.78845C12.2362 4.08204 11.22 4.08349 10.2757 3.7926L8.32031 3.19203C8.0849 3.11944 7.83489 3.10102 7.59063 3.13828C7.34637 3.17554 7.11477 3.26743 6.91468 3.40645C6.7146 3.54547 6.5517 3.72771 6.43924 3.93831C6.32678 4.14891 6.26794 4.38193 6.26752 4.61838V6.57024C6.26803 7.52041 5.95348 8.44628 5.36905 9.21484C4.78462 9.98341 3.96039 10.5551 3.01478 10.8478L1.08449 11.4484C0.848975 11.5217 0.634927 11.6471 0.459823 11.8146C0.284719 11.982 0.153524 12.1867 0.0769496 12.4119C0.000374868 12.637 -0.0194088 12.8763 0.0192141 13.1102C0.0578369 13.3441 0.153771 13.5659 0.299184 13.7576L1.49913 15.3401C2.08051 16.1082 2.39349 17.0322 2.39349 17.9803C2.39349 18.9285 2.08051 19.8524 1.49913 20.6206L0.299184 22.2046C0.153771 22.3963 0.0578369 22.6181 0.0192141 22.852C-0.0194088 23.0858 0.000374868 23.3251 0.0769496 23.5503C0.153524 23.7755 0.284719 23.9801 0.459823 24.1476C0.634927 24.315 0.848975 24.4405 1.08449 24.5138L3.01478 25.1144C3.96039 25.4071 4.78462 25.9788 5.36905 26.7473C5.95348 27.5159 6.26803 28.4418 6.26752 29.3919V31.3438C6.26753 31.5807 6.3262 31.8143 6.43873 32.0254C6.55126 32.2365 6.71446 32.4191 6.91497 32.5584C7.11549 32.6976 7.34764 32.7896 7.59243 32.8266C7.83723 32.8637 8.08773 32.8449 8.32345 32.7716L10.2647 32.1711C11.2109 31.8746 12.2311 31.8733 13.178 32.1675C14.125 32.4617 14.9495 33.0361 15.5326 33.8076L16.7294 35.3811C16.8751 35.5728 17.0661 35.7288 17.287 35.8364C17.5078 35.9439 17.7521 36 18 36C18.2479 36 18.4922 35.9439 18.713 35.8364C18.9339 35.7288 19.1249 35.5728 19.2706 35.3811L20.4674 33.8076C21.0508 33.0364 21.8754 32.4623 22.8222 32.1682C23.769 31.8741 24.7891 31.8751 25.7353 32.1711L27.6765 32.7716C27.9123 32.8449 28.1628 32.8637 28.4076 32.8266C28.6524 32.7896 28.8845 32.6976 29.085 32.5584C29.2855 32.4191 29.4487 32.2365 29.5613 32.0254C29.6738 31.8143 29.7325 31.5807 29.7325 31.3438V29.3919C29.7306 28.4407 30.0446 27.5135 30.6291 26.7437C31.2136 25.974 32.0386 25.4014 32.9852 25.1084L34.9155 24.5078C35.151 24.4345 35.3651 24.309 35.5402 24.1416C35.7153 23.9741 35.8465 23.7695 35.9231 23.5443C35.9996 23.3191 36.0194 23.0798 35.9808 22.846C35.9422 22.6121 35.8462 22.3903 35.7008 22.1986L34.5009 20.6221ZM31.8937 22.2977C30.3647 22.7964 29.0345 23.7349 28.0853 24.9845C27.136 26.234 26.6142 27.7337 26.5913 29.2778C25.0464 28.8204 23.3914 28.8312 21.8533 29.3086C20.3151 29.786 18.9691 30.7067 18 31.9444C17.2712 31.0125 16.3252 30.256 15.2371 29.7347C14.149 29.2134 12.9488 28.9418 11.7317 28.9415C10.9443 28.942 10.1613 29.0549 9.40874 29.2763C9.38558 27.7322 8.86366 26.2327 7.91445 24.9831C6.96523 23.7336 5.63515 22.7951 4.10635 22.2962C5.03766 21.0328 5.53756 19.5251 5.53756 17.9796C5.53756 16.4341 5.03766 14.9263 4.10635 13.663C5.63565 13.1639 6.96609 12.2249 7.91534 10.9748C8.8646 9.72464 9.38623 8.22447 9.40874 6.67984C10.9531 7.13725 12.6077 7.12697 14.1457 6.65041C15.6837 6.17385 17.03 5.25432 18 4.01781C18.9693 5.25529 20.3152 6.17584 21.8534 6.65324C23.3915 7.13063 25.0464 7.1415 26.5913 6.68435C26.6135 8.22923 27.1349 9.72974 28.0842 10.9802C29.0335 12.2306 30.3641 13.1698 31.8937 13.669C30.9634 14.9319 30.4641 16.4387 30.4641 17.9833C30.4641 19.5279 30.9634 21.0348 31.8937 22.2977Z" fill="#F80888"/>
<path d="M23.172 13.9166L16.4294 20.3622L12.828 16.9194C12.6831 16.776 12.5098 16.6617 12.3181 16.583C12.1265 16.5043 11.9204 16.4629 11.7119 16.4611C11.5033 16.4594 11.2965 16.4974 11.1035 16.5729C10.9105 16.6484 10.7351 16.7599 10.5876 16.9008C10.4402 17.0418 10.3236 17.2094 10.2446 17.394C10.1656 17.5785 10.1259 17.7762 10.1277 17.9755C10.1295 18.1749 10.1728 18.3719 10.2551 18.5551C10.3375 18.7383 10.4571 18.904 10.6071 19.0425L15.319 23.5467C15.6135 23.8282 16.0129 23.9863 16.4294 23.9863C16.8458 23.9863 17.2453 23.8282 17.5398 23.5467L25.3929 16.0396C25.679 15.7564 25.8373 15.3772 25.8337 14.9835C25.8301 14.5898 25.6649 14.2133 25.3737 13.9349C25.0825 13.6565 24.6886 13.4986 24.2768 13.4952C23.865 13.4918 23.4682 13.6431 23.172 13.9166Z" fill="#F80888"/>
</g>
<defs>
<clipPath id="clip0_41_5">
<rect width="36" height="36" fill="white"/>
</clipPath>
</defs>
</svg>
