<svg width="188" height="65" viewBox="0 0 188 65" fill="none" xmlns="http://www.w3.org/2000/svg">
<path d="M83.217 43L87.153 21.208H90.481L96.177 36.76L101.905 21.208H105.201L109.169 43H105.329L103.665 32.856C103.43 31.4267 103.228 30.0187 103.057 28.632C102.886 27.224 102.769 25.8053 102.705 24.376H103.697C103.313 26.0187 102.929 27.5013 102.545 28.824C102.161 30.1253 101.724 31.4587 101.233 32.824L97.617 42.68H94.737L91.121 32.824C90.6303 31.4373 90.193 30.0933 89.809 28.792C89.425 27.4907 89.041 26.0187 88.657 24.376H89.649C89.585 25.8053 89.4677 27.224 89.297 28.632C89.1477 30.0187 88.945 31.4267 88.689 32.856L87.025 43H83.217ZM120.147 43.352C118.547 43.352 117.139 43.0107 115.923 42.328C114.707 41.6453 113.758 40.696 113.075 39.48C112.414 38.2427 112.083 36.824 112.083 35.224C112.083 33.5813 112.414 32.152 113.075 30.936C113.758 29.6987 114.707 28.7387 115.923 28.056C117.139 27.3733 118.547 27.032 120.147 27.032C121.747 27.032 123.155 27.3733 124.371 28.056C125.587 28.7387 126.526 29.6987 127.187 30.936C127.87 32.152 128.211 33.5813 128.211 35.224C128.211 36.824 127.87 38.2427 127.187 39.48C126.526 40.696 125.587 41.6453 124.371 42.328C123.155 43.0107 121.747 43.352 120.147 43.352ZM120.147 39.768C121.427 39.768 122.462 39.352 123.251 38.52C124.041 37.6667 124.435 36.5573 124.435 35.192C124.435 33.8267 124.041 32.728 123.251 31.896C122.462 31.0427 121.427 30.616 120.147 30.616C118.867 30.616 117.833 31.032 117.043 31.864C116.254 32.696 115.859 33.8053 115.859 35.192C115.859 36.5573 116.254 37.6667 117.043 38.52C117.833 39.352 118.867 39.768 120.147 39.768ZM137.741 43.288C136.248 43.288 135.064 42.8827 134.189 42.072C133.336 41.24 132.909 39.9387 132.909 38.168V27.576V27.384L133.613 23.768H136.621V37.848C136.621 38.488 136.781 38.9573 137.101 39.256C137.421 39.5547 137.837 39.704 138.349 39.704C138.69 39.704 139 39.6827 139.277 39.64C139.554 39.5973 139.8 39.544 140.013 39.48V42.936C139.693 43.0427 139.352 43.128 138.989 43.192C138.648 43.256 138.232 43.288 137.741 43.288ZM130.509 30.776V27.384H140.013V30.776H130.509ZM148.207 43H144.495V27.384H148.207V43ZM144.015 22.52C144.015 21.8373 144.218 21.2827 144.623 20.856C145.05 20.408 145.626 20.184 146.351 20.184C147.034 20.184 147.589 20.408 148.015 20.856C148.442 21.2827 148.655 21.8373 148.655 22.52C148.655 23.2027 148.442 23.7573 148.015 24.184C147.589 24.6107 147.034 24.824 146.351 24.824C145.626 24.824 145.05 24.6107 144.623 24.184C144.218 23.7573 144.015 23.2027 144.015 22.52ZM160.215 43.352C158.615 43.352 157.207 43.0107 155.991 42.328C154.775 41.6453 153.825 40.696 153.143 39.48C152.481 38.2427 152.151 36.824 152.151 35.224C152.151 33.5813 152.481 32.152 153.143 30.936C153.825 29.6987 154.775 28.7387 155.991 28.056C157.207 27.3733 158.615 27.032 160.215 27.032C161.815 27.032 163.223 27.3733 164.439 28.056C165.655 28.7387 166.593 29.6987 167.255 30.936C167.937 32.152 168.279 33.5813 168.279 35.224C168.279 36.824 167.937 38.2427 167.255 39.48C166.593 40.696 165.655 41.6453 164.439 42.328C163.223 43.0107 161.815 43.352 160.215 43.352ZM160.215 39.768C161.495 39.768 162.529 39.352 163.319 38.52C164.108 37.6667 164.503 36.5573 164.503 35.192C164.503 33.8267 164.108 32.728 163.319 31.896C162.529 31.0427 161.495 30.616 160.215 30.616C158.935 30.616 157.9 31.032 157.111 31.864C156.321 32.696 155.927 33.8053 155.927 35.192C155.927 36.5573 156.321 37.6667 157.111 38.52C157.9 39.352 158.935 39.768 160.215 39.768ZM181.191 27.032C182.3 27.032 183.175 27.2133 183.815 27.576C184.455 27.9387 184.935 28.44 185.255 29.08C185.575 29.6987 185.777 30.4027 185.863 31.192C185.969 31.96 186.023 32.76 186.023 33.592V43H182.311V33.272C182.311 32.2267 182.087 31.5333 181.639 31.192C181.212 30.8293 180.679 30.648 180.039 30.648C179.441 30.648 178.823 30.776 178.183 31.032C177.564 31.2667 176.999 31.5973 176.487 32.024C175.975 32.4293 175.559 32.8987 175.239 33.432L174.951 31.416H175.751V43H172.039V27.384H174.823L175.591 30.232L174.503 30.264C175.1 29.6027 175.751 29.0373 176.455 28.568C177.159 28.0773 177.905 27.704 178.695 27.448C179.505 27.1707 180.337 27.032 181.191 27.032Z" fill="#F5EA16"/>
<circle cx="32.5" cy="32.5" r="32.5" fill="#F5EA16"/>
<path d="M27.5077 23H38L26.6051 43H16L27.5077 23Z" fill="#112211"/>
<path d="M13.3641 26.8503L14.4923 25.5668L15.5077 24.8182L16.6359 24.1765L17.8769 23.6417L19.2308 23.2139L20.1333 23.107L26 23L14.6051 43H4L13.3641 26.8503Z" fill="#112211"/>
<path d="M40.4872 39.1497L39.4615 40.4332L38.5385 41.1818L37.5128 41.8235L36.3846 42.3583L35.1538 42.7861L34.3333 42.893L29 43L39.359 23H49L40.4872 39.1497Z" fill="#112211"/>
<ellipse cx="55.5" cy="28" rx="5.5" ry="5" fill="#112211"/>
</svg>
