<svg width="200" height="46" viewBox="0 0 200 46" fill="none" xmlns="http://www.w3.org/2000/svg">
<path fill-rule="evenodd" clip-rule="evenodd" d="M0 22.8802V45.7603L3.72928 45.737L7.45906 45.7132L7.48006 28.1263C7.49157 18.4533 7.53107 10.5389 7.56757 10.5389C7.68508 10.5389 7.83409 10.7502 7.83409 10.9172C7.83409 11.0064 7.8926 11.0794 7.9641 11.0794C8.03511 11.0794 8.07311 11.1156 8.04811 11.1594C7.9871 11.2664 8.20562 11.4561 8.29263 11.3712C8.33013 11.3345 8.33913 11.3453 8.31313 11.3955C8.26262 11.4923 8.43764 11.8025 8.55565 11.8257C8.59415 11.8333 8.61615 11.8846 8.60415 11.9398C8.59265 11.9954 8.73316 12.1905 8.91667 12.3743C9.10069 12.5575 9.2517 12.7569 9.2527 12.8169C9.2537 12.8769 9.40371 13.0655 9.58572 13.2358C9.76824 13.406 9.91725 13.619 9.91725 13.7087C9.91725 13.8006 9.97775 13.8719 10.0563 13.8719C10.1328 13.8719 10.1718 13.8973 10.1428 13.9286C10.1138 13.96 10.2013 14.0978 10.3373 14.2351C10.4728 14.3724 10.5843 14.5491 10.5843 14.6285C10.5843 14.7074 10.6418 14.7723 10.7118 14.7723C10.7818 14.7723 10.8638 14.8436 10.8938 14.9301C10.9238 15.0166 11.0163 15.1409 11.0993 15.2052C11.1828 15.27 11.2508 15.3846 11.2508 15.4597C11.2508 15.6235 11.4599 15.8678 11.5324 15.7889C11.5609 15.7586 11.5844 15.791 11.5844 15.8618C11.5844 15.9326 11.6594 16.0407 11.7509 16.1029C11.8424 16.1645 11.9174 16.2769 11.9174 16.3526C11.9174 16.4904 12.4559 17.133 12.5164 17.0676C12.5344 17.0481 12.597 17.1162 12.656 17.2178C12.7445 17.3708 12.744 17.3919 12.653 17.3362C12.5925 17.2989 12.702 17.4481 12.897 17.668C13.0915 17.8875 13.2515 18.1058 13.2525 18.1539C13.2545 18.2858 13.718 18.8257 13.8295 18.8257C13.8835 18.8257 13.9045 18.8662 13.876 18.9159C13.8475 18.9657 13.855 19.0062 13.8925 19.0062C13.9301 19.0062 14.0096 19.1267 14.0701 19.2743C14.1306 19.4213 14.2051 19.5331 14.2366 19.5218C14.2676 19.5104 14.3001 19.5348 14.3086 19.5753C14.3176 19.6153 14.4486 19.7715 14.6006 19.9217C14.7521 20.072 14.8291 20.1682 14.7721 20.1357C14.6331 20.0563 14.6396 20.159 14.7826 20.3141C14.8461 20.3827 14.9211 20.4135 14.9496 20.3827C14.9781 20.3525 15.0011 20.3946 15.0011 20.4773C15.0011 20.56 15.0596 20.6276 15.1311 20.6276C15.2026 20.6276 15.2376 20.6681 15.2096 20.7173C15.1811 20.767 15.1976 20.8075 15.2462 20.8075C15.2947 20.8075 15.3347 20.8702 15.3347 20.947C15.3347 21.1107 15.7107 21.542 15.7842 21.4626C15.8117 21.4328 15.8347 21.4712 15.8347 21.5485C15.8347 21.6258 15.8932 21.7133 15.9647 21.7431C16.0367 21.7728 16.0732 21.8355 16.0462 21.8825C16.0197 21.929 16.0642 22.0095 16.1452 22.0603C16.2267 22.1116 16.2607 22.1543 16.2217 22.156C16.1822 22.1576 16.2667 22.2765 16.4092 22.4202C16.5513 22.5635 16.6678 22.7067 16.6678 22.738C16.6678 22.7694 16.8178 22.9439 17.0013 23.1261C17.1848 23.3082 17.3348 23.5109 17.3348 23.5763C17.3348 23.6422 17.4848 23.8449 17.6678 24.027C17.8513 24.2091 18.0014 24.421 18.0014 24.4983C18.0014 24.575 18.0984 24.7166 18.2164 24.8128C18.3349 24.909 18.5014 25.1312 18.5864 25.3068C18.7724 25.6911 19.1134 26.1218 19.231 26.1218C19.278 26.1218 19.311 26.1931 19.3045 26.2796C19.2985 26.3672 19.3425 26.4261 19.4035 26.4126C19.464 26.3991 19.4935 26.4228 19.469 26.4661C19.4445 26.5093 19.554 26.6979 19.713 26.8849C19.8715 27.0725 20.005 27.1903 20.01 27.1465C20.0145 27.1033 20.046 27.1692 20.0795 27.293C20.1135 27.4167 20.185 27.5081 20.238 27.4956C20.2915 27.4832 20.3255 27.5043 20.314 27.5427C20.3025 27.5805 20.3965 27.7324 20.5225 27.8794C20.6486 28.0264 20.7516 28.1977 20.7516 28.2604C20.7516 28.3225 20.8141 28.3739 20.8906 28.3739C20.9671 28.3739 21.0076 28.3971 20.9811 28.4258C20.9546 28.4544 21.0421 28.5906 21.1756 28.7284C21.3091 28.8662 21.4181 29.0267 21.4181 29.0851C21.4181 29.144 21.5681 29.3461 21.7516 29.5348C21.9352 29.7228 22.0852 29.9255 22.0852 29.985C22.0852 30.0439 22.2352 30.2465 22.4182 30.4352C22.6017 30.6238 22.7517 30.8275 22.7517 30.8886C22.7517 31.0324 22.9667 31.2642 23.0332 31.1918C23.0617 31.1615 23.0852 31.194 23.0852 31.2648C23.0852 31.3356 23.1602 31.4436 23.2518 31.5058C23.3433 31.5674 23.4183 31.6804 23.4183 31.7566C23.4183 31.9284 23.7963 32.3489 23.8748 32.2641C23.9063 32.23 23.9208 32.2424 23.9063 32.2922C23.8688 32.4213 24.1858 32.9666 24.2673 32.9126C24.3043 32.8877 24.3353 32.9304 24.3353 33.0072C24.3353 33.0845 24.3978 33.1477 24.4738 33.1477C24.5504 33.1477 24.5894 33.1731 24.5609 33.2039C24.5324 33.2352 24.5919 33.3396 24.6929 33.4363C24.7939 33.533 24.8299 33.586 24.7729 33.5547C24.6339 33.4785 24.6404 33.5806 24.7834 33.7357C24.8469 33.8038 24.9219 33.8346 24.9504 33.8043C24.9789 33.7735 25.0019 33.7984 25.0019 33.86C25.0019 33.9957 25.2074 34.2286 25.3269 34.2286C25.3744 34.2286 25.3924 34.2875 25.3669 34.3599C25.3174 34.4988 25.6989 34.9771 25.7849 34.8836C25.8124 34.8539 25.8354 34.8869 25.8354 34.9577C25.8354 35.0285 25.9105 35.1366 26.002 35.1987C26.0935 35.2603 26.1685 35.3922 26.1685 35.4906C26.1685 35.5916 26.2245 35.67 26.2965 35.67C26.3665 35.67 26.4485 35.7408 26.4785 35.8278C26.508 35.9143 26.601 36.038 26.684 36.1029C26.767 36.1677 26.8355 36.2996 26.8355 36.3958C26.8355 36.499 26.892 36.5709 26.974 36.5709C27.0505 36.5709 27.0895 36.5963 27.0605 36.6277C27.0315 36.659 27.119 36.7968 27.2551 36.9341C27.3911 37.0714 27.5021 37.2481 27.5021 37.3276C27.5021 37.4065 27.5646 37.4713 27.6411 37.4713C27.7176 37.4713 27.7561 37.4973 27.7266 37.5291C27.6971 37.561 27.8106 37.7232 27.9791 37.8896C28.1471 38.0561 28.2601 38.1923 28.2301 38.1923C28.2001 38.1923 28.3236 38.3512 28.5057 38.5452C28.6872 38.7398 28.8357 38.9424 28.8357 38.9959C28.8357 39.0489 28.9012 39.1678 28.9812 39.2597C29.2317 39.5456 29.3857 39.7704 29.4447 39.9358C29.4757 40.0233 29.5382 40.0704 29.5842 40.0396C29.6337 40.0066 29.6447 40.0466 29.6122 40.139C29.5747 40.2438 29.5887 40.2725 29.6547 40.2282C29.7132 40.1893 29.7522 40.2195 29.7522 40.3033C29.7522 40.3806 29.8107 40.4438 29.8823 40.4438C29.9538 40.4438 29.9888 40.4843 29.9608 40.5341C29.9323 40.5838 29.9488 40.6243 29.9973 40.6243C30.0458 40.6243 30.0858 40.6746 30.0858 40.7367C30.0858 40.8913 30.4648 41.3556 30.5318 41.2831C30.5613 41.2507 30.5858 41.2923 30.5858 41.375C30.5858 41.4572 30.6138 41.5247 30.6488 41.5247C30.6833 41.5247 30.7613 41.6463 30.8223 41.7949C30.8833 41.9436 30.9923 42.0652 31.0648 42.0652C31.1374 42.0652 31.1734 42.0906 31.1453 42.1214C31.0818 42.1895 31.2429 42.37 31.4399 42.4505C31.5199 42.4835 31.5859 42.5824 31.5859 42.6705C31.5864 42.8407 32.0399 43.4163 32.1734 43.4163C32.2169 43.4163 32.2524 43.4806 32.2524 43.5584C32.2524 43.6368 32.4024 43.8568 32.586 44.047C32.769 44.2373 32.919 44.4399 32.919 44.4972C32.919 44.5545 33.069 44.7572 33.2525 44.9479C33.436 45.1382 33.586 45.3403 33.586 45.3976C33.586 45.7727 32.603 45.757 56.6613 45.7581L79.4995 45.7592L79.504 41.9755L79.509 38.1923H64.7979H50.0873V32.337V26.4823H61.9182H73.7486L73.7536 22.6537C73.7566 20.5476 73.7301 18.83 73.6946 18.836C73.6596 18.8419 68.3332 18.8424 61.8587 18.8365L50.0873 18.8257V13.1963V7.56643L64.6089 7.56534C72.596 7.56426 79.214 7.53994 79.315 7.51076L79.499 7.45725L79.504 3.72867L79.509 8.1892e-05H61.0481H42.5867L42.5837 22.2262C42.5817 40.7265 42.5627 44.4259 42.4707 44.2945C42.4097 44.2081 42.3147 44.1373 42.2597 44.1373C42.2052 44.1373 42.1792 44.1038 42.2022 44.0632C42.2252 44.0227 42.1712 43.933 42.0822 43.8633C41.9927 43.7941 41.9197 43.7022 41.9197 43.6595C41.9197 43.6174 41.7697 43.4266 41.5866 43.2363C41.4031 43.0461 41.2531 42.8261 41.2531 42.7478C41.2531 42.6699 41.1991 42.6056 41.1326 42.6056C41.0666 42.6056 40.9461 42.484 40.8646 42.3354C40.7836 42.1868 40.6876 42.0652 40.6516 42.0652C40.6156 42.0652 40.5866 41.9841 40.5866 41.8852C40.5866 41.7863 40.5346 41.7052 40.4711 41.7052C40.4075 41.7052 40.2885 41.5934 40.207 41.4572C40.1255 41.321 39.9895 41.1442 39.9055 41.0637C39.8215 40.9837 39.753 40.8697 39.753 40.8097C39.753 40.6892 39.504 40.3876 39.5015 40.5049C39.501 40.546 39.3975 40.3914 39.2725 40.1622C39.0159 39.6926 38.6084 39.1381 38.5199 39.1381C38.4874 39.1381 38.4709 39.1073 38.4824 39.07C38.5154 38.9624 38.0709 38.462 37.9904 38.516C37.9504 38.5425 37.8944 38.4398 37.8664 38.2879C37.8379 38.1339 37.7624 38.0118 37.6958 38.0118C37.6303 38.0118 37.5943 37.9804 37.6168 37.9415C37.6388 37.9026 37.5473 37.7761 37.4133 37.661C37.2793 37.5454 37.1693 37.3746 37.1693 37.2811C37.1693 37.187 37.1113 37.1114 37.0393 37.1114C36.9683 37.1114 36.9278 37.0795 36.9498 37.0406C36.9723 37.0017 36.8808 36.8757 36.7468 36.7601C36.6123 36.645 36.5028 36.4742 36.5028 36.3807C36.5028 36.2872 36.4453 36.2104 36.3752 36.2104C36.3047 36.2104 36.2232 36.1396 36.1932 36.0526C36.1632 35.9662 36.0707 35.8424 35.9872 35.7775C35.9042 35.7127 35.8362 35.5808 35.8362 35.4846C35.8362 35.3862 35.7792 35.3095 35.7062 35.3095C35.6347 35.3095 35.5932 35.2792 35.6142 35.242C35.6632 35.1539 35.4527 34.9436 35.3867 35.015C35.3587 35.0447 35.3362 35.002 35.3362 34.9193C35.3362 34.8366 35.2987 34.7691 35.2527 34.7691C35.2067 34.7691 35.1692 34.7074 35.1692 34.6318C35.1692 34.4853 34.4621 33.6719 34.3966 33.7427C34.3751 33.766 34.2906 33.6325 34.2091 33.446C34.0411 33.0639 33.8921 32.8775 33.7535 32.8775C33.7015 32.8775 33.6825 32.8369 33.7105 32.7878C33.773 32.6786 33.552 32.3138 33.474 32.3981C33.444 32.4305 33.419 32.4051 33.419 32.3413C33.419 32.2781 33.2975 32.1052 33.1485 31.9571C32.9995 31.8095 32.9245 31.7155 32.9815 31.7479C33.039 31.7809 33.086 31.782 33.086 31.7506C33.086 31.6798 32.8575 31.4291 32.797 31.4334C32.7725 31.435 32.747 31.4058 32.74 31.3691C32.733 31.3318 32.611 31.1859 32.4689 31.0448C32.3269 30.9032 32.2574 30.8146 32.3149 30.847C32.534 30.9718 32.4024 30.7697 31.9814 30.3336C31.7409 30.0844 31.5909 29.9088 31.6484 29.9428C31.7054 29.9774 31.7524 29.9628 31.7524 29.9104C31.7524 29.858 31.6939 29.8153 31.6224 29.8153C31.5509 29.8153 31.5094 29.7845 31.5304 29.7477C31.5799 29.6596 31.3689 29.4488 31.3029 29.5202C31.2749 29.5504 31.2524 29.505 31.2524 29.4196C31.2524 29.3337 31.2149 29.2889 31.1689 29.3197C31.0958 29.3688 31.0513 29.2575 31.0733 29.0802C31.0773 29.0473 30.9318 28.8549 30.7498 28.6522C30.5678 28.4495 30.4188 28.2631 30.4188 28.2382C30.4188 28.2134 30.2313 27.9945 30.0023 27.7518C29.7732 27.5091 29.5857 27.2681 29.5857 27.2151C29.5857 27.1627 29.4357 26.9595 29.2522 26.7633C29.0687 26.5666 28.9182 26.3526 28.9177 26.2866C28.9157 26.1396 28.4701 25.5814 28.3546 25.5814C28.3086 25.5814 28.2756 25.5106 28.2821 25.4241C28.2886 25.3365 28.2446 25.2771 28.1836 25.2911C28.1226 25.3046 28.0971 25.2738 28.1261 25.223C28.1766 25.1344 27.9991 24.8766 27.8591 24.835C27.8231 24.8247 27.8031 24.7853 27.8146 24.7485C27.8261 24.7112 27.7981 24.681 27.7521 24.681C27.7061 24.681 27.6686 24.6247 27.6686 24.5567C27.6686 24.488 27.5186 24.2653 27.3356 24.0611C27.152 23.8568 27.002 23.6649 27.002 23.6341C27.002 23.6038 26.852 23.426 26.6685 23.2396C26.4855 23.0531 26.3355 22.8348 26.3355 22.7548C26.3355 22.6748 26.278 22.6089 26.2075 22.6089C26.1375 22.6089 26.056 22.5381 26.026 22.4516C25.996 22.3646 25.8945 22.2192 25.7994 22.1273C25.7044 22.036 25.6379 21.9046 25.6514 21.8349C25.6649 21.7652 25.6169 21.7085 25.5444 21.7085C25.4724 21.7085 25.3889 21.6371 25.3584 21.5507C25.3284 21.4642 25.1984 21.2853 25.0694 21.154C24.9409 21.0226 24.8354 20.8681 24.8354 20.8102C24.8354 20.6865 24.6224 20.4373 24.5674 20.4962C24.5469 20.5189 24.4798 20.4357 24.4183 20.3119C24.3573 20.1882 24.2758 20.0871 24.2378 20.0871C24.1998 20.0871 24.1683 20.0223 24.1683 19.9428C24.1683 19.8639 24.0468 19.6769 23.8978 19.5272C23.7488 19.378 23.5683 19.1283 23.4968 18.9732C23.4248 18.8181 23.3188 18.7019 23.2613 18.7154C23.2033 18.7289 23.1777 18.7019 23.2048 18.6549C23.2313 18.6084 23.1607 18.4911 23.0472 18.3944C22.9337 18.2982 22.8627 18.1955 22.8892 18.1663C22.9542 18.0966 22.7082 17.835 22.5772 17.835C22.5202 17.835 22.4987 17.808 22.5287 17.7756C22.5592 17.7426 22.5092 17.6594 22.4177 17.5902C22.3267 17.521 22.2507 17.3956 22.2497 17.3119C22.2487 17.2281 22.0987 17.02 21.9167 16.8498C21.7341 16.679 21.5851 16.4661 21.5851 16.3769C21.5851 16.2872 21.5276 16.2137 21.4571 16.2137C21.3871 16.2137 21.3056 16.1429 21.2756 16.0559C21.2456 15.9694 21.1531 15.8327 21.0701 15.7527C20.9866 15.6727 20.9181 15.5592 20.9181 15.5008C20.9181 15.3608 20.5335 14.9479 20.4685 15.0182C20.441 15.0479 20.418 15.0052 20.418 14.9225C20.418 14.8398 20.3805 14.7723 20.335 14.7723C20.289 14.7723 20.2515 14.7085 20.2515 14.6307C20.2515 14.4664 20.056 14.2318 19.919 14.2318C19.8675 14.2318 19.842 14.2016 19.863 14.1643C19.912 14.0762 19.7015 13.8659 19.6355 13.9373C19.6075 13.967 19.585 13.9243 19.585 13.8416C19.585 13.7589 19.5475 13.6914 19.5015 13.6914C19.4555 13.6914 19.418 13.6292 19.418 13.5536C19.418 13.4779 19.362 13.3925 19.2935 13.3639C19.225 13.3358 19.1849 13.285 19.2039 13.2515C19.2234 13.2174 19.1294 13.0958 18.9954 12.9801C18.8609 12.865 18.7514 12.7364 18.7514 12.6948C18.7514 12.6532 18.6669 12.5197 18.5639 12.3981C18.2639 12.0452 18.1734 11.9111 18.0724 11.6712C18.0199 11.5469 17.9449 11.4669 17.9058 11.4928C17.8668 11.5188 17.8348 11.4771 17.8348 11.3999C17.8348 11.3226 17.7763 11.2593 17.7048 11.2593C17.6333 11.2593 17.5978 11.2188 17.6263 11.1696C17.6548 11.1199 17.6473 11.0794 17.6098 11.0794C17.5723 11.0794 17.4923 10.9578 17.4313 10.8086C17.3703 10.66 17.2858 10.5605 17.2443 10.5886C17.2023 10.6167 17.1678 10.5859 17.1678 10.5205C17.1678 10.4551 17.0748 10.326 16.9613 10.2336C16.8473 10.1411 16.7748 10.0304 16.7998 9.98658C16.8533 9.89254 16.6868 9.69797 16.4802 9.61366C16.4002 9.58069 16.3347 9.49584 16.3347 9.42558C16.3347 9.35478 16.2777 9.27372 16.2087 9.24507C16.1397 9.21643 16.0892 9.1613 16.0972 9.12293C16.1257 8.97863 15.9792 8.73759 15.8622 8.73759C15.7957 8.73759 15.7602 8.70408 15.7837 8.66355C15.8067 8.62301 15.7527 8.5333 15.6632 8.46358C15.5742 8.3944 15.5012 8.30198 15.5012 8.25875C15.5012 8.21605 15.3137 7.98528 15.0846 7.7464C14.8551 7.50806 14.6676 7.26485 14.6676 7.20702C14.6676 7.1492 14.5176 6.94599 14.3346 6.75575C14.1511 6.56551 14.0011 6.36284 14.0011 6.30555C14.0011 6.24826 13.851 6.04559 13.6675 5.85481C13.4845 5.66457 13.3345 5.45974 13.3345 5.39975C13.3345 5.33922 13.2405 5.196 13.126 5.08142C13.0115 4.96685 12.9175 4.83011 12.9175 4.77823C12.9175 4.72634 12.8895 4.68311 12.855 4.68149C12.821 4.68041 12.7 4.51719 12.587 4.31938C12.4719 4.11725 12.3354 3.97836 12.2759 4.00268C12.2119 4.0297 12.1424 3.93404 12.0979 3.75731C12.0579 3.59842 11.9819 3.4779 11.9294 3.49033C11.8769 3.50276 11.8404 3.48276 11.8474 3.44547C11.8754 3.30279 11.7274 3.06283 11.6119 3.06283C11.5454 3.06283 11.5144 3.0223 11.5424 2.97257C11.5709 2.92285 11.5544 2.88232 11.5059 2.88232C11.4574 2.88232 11.4174 2.83908 11.4174 2.78612C11.4174 2.65263 11.1988 2.42834 11.1358 2.49643C11.1073 2.52724 11.0843 2.49427 11.0843 2.42401C11.0843 2.35321 11.0093 2.24458 10.9173 2.18297C10.8258 2.12082 10.7508 2.00678 10.7508 1.9295C10.7508 1.7625 10.5428 1.51605 10.4693 1.5955C10.4408 1.62631 10.4173 1.60036 10.4173 1.53767C10.4173 1.47498 10.3048 1.31014 10.1673 1.17124C10.0298 1.03235 9.91725 0.872373 9.91725 0.816166C9.91725 0.759419 9.76124 0.552965 9.57072 0.356781L9.2237 8.1892e-05H4.61185H0V22.8802ZM87.8401 0.1406C87.8401 0.217884 87.8776 0.255716 87.9231 0.225451C87.9691 0.194645 88.0066 0.233017 88.0066 0.309762C88.0066 0.387046 88.0351 0.450279 88.0696 0.450279C88.1041 0.450279 88.1806 0.567558 88.2392 0.710778C88.2982 0.854538 88.4197 0.992354 88.5097 1.01776C88.5997 1.04316 88.6732 1.12855 88.6732 1.20745C88.6732 1.28636 88.7107 1.35121 88.7567 1.35121C88.8027 1.35121 88.8402 1.40688 88.8402 1.47552C88.8402 1.54362 88.9902 1.76682 89.1732 1.97111C89.3567 2.17541 89.5068 2.36565 89.5068 2.39429C89.5068 2.42293 89.6568 2.60182 89.8403 2.7926C90.0233 2.98284 90.1733 3.18389 90.1733 3.23956C90.1733 3.29468 90.3233 3.49411 90.5068 3.68273C90.6903 3.87135 90.8404 4.07402 90.8404 4.13347C90.8404 4.19238 90.9904 4.39505 91.1734 4.58366C91.3569 4.77228 91.5069 4.97603 91.5069 5.03656C91.5069 5.18087 91.7219 5.41218 91.7884 5.3403C91.8169 5.30949 91.8404 5.34246 91.8404 5.41272C91.8404 5.48352 91.9154 5.59215 92.0069 5.65376C92.0984 5.71591 92.1735 5.84724 92.1735 5.94561C92.1735 6.04829 92.2295 6.12504 92.3035 6.12504C92.375 6.12504 92.4145 6.15855 92.3915 6.19908C92.368 6.23961 92.4315 6.37311 92.5325 6.49633C92.633 6.61955 92.757 6.79898 92.8075 6.89572C92.8585 6.99192 92.943 7.07083 92.995 7.07083C93.0475 7.07083 93.081 7.09731 93.0695 7.1292C93.0355 7.22432 93.3565 7.56643 93.4325 7.51562C93.4706 7.48968 93.5286 7.58156 93.5606 7.71937C93.5926 7.85719 93.7621 8.11931 93.9376 8.30144C94.1136 8.48411 94.2571 8.69705 94.2571 8.77542C94.2571 8.85378 94.3196 8.91756 94.3961 8.91756C94.4726 8.91756 94.5111 8.94296 94.4821 8.97431C94.4531 9.00565 94.5406 9.14347 94.6766 9.28074C94.8127 9.41802 94.9237 9.59529 94.9237 9.67419C94.9237 9.75364 94.9812 9.81849 95.0517 9.81849C95.1217 9.81849 95.2037 9.88929 95.2337 9.97577C95.2632 10.0628 95.3562 10.1865 95.4392 10.2514C95.5222 10.3163 95.5912 10.4379 95.5922 10.5216C95.5937 10.6054 95.7437 10.8135 95.9257 10.9837C96.1083 11.1545 96.2573 11.3485 96.2573 11.415C96.2573 11.5506 96.8018 12.1722 96.8633 12.1062C96.8848 12.083 96.9613 12.197 97.0333 12.3597C97.1053 12.5224 97.2323 12.725 97.3148 12.8104C97.6174 13.1201 97.7974 13.3579 97.6739 13.2844C97.5964 13.2385 97.6119 13.2914 97.7159 13.4255C98.0084 13.8038 98.0769 13.8719 98.1654 13.8719C98.2134 13.8719 98.2324 13.9276 98.2079 13.9962C98.1824 14.0686 98.3489 14.3205 98.6064 14.5972C98.85 14.8593 99.0025 15.0441 98.945 15.0079C98.741 14.8793 98.846 15.0533 99.208 15.4441C99.4095 15.6624 99.597 15.8164 99.6245 15.7873C99.652 15.7575 99.674 15.8229 99.674 15.9326C99.674 16.1402 100.036 16.6033 100.124 16.5082C100.152 16.4785 100.174 16.5169 100.174 16.5942C100.174 16.6714 100.233 16.759 100.305 16.7887C100.376 16.8184 100.413 16.8811 100.386 16.9282C100.359 16.9752 100.404 17.0552 100.485 17.106C100.566 17.1573 100.601 17.2 100.561 17.2016C100.522 17.2032 100.607 17.3221 100.749 17.4659C100.891 17.6097 101.008 17.7496 101.008 17.7777C101.008 17.8053 101.158 17.9885 101.341 18.1847C101.524 18.3809 101.674 18.5836 101.674 18.6349C101.674 18.6868 101.824 18.8895 102.008 19.0856C102.191 19.2818 102.341 19.4877 102.341 19.5434C102.341 19.5991 102.425 19.7385 102.529 19.8536C102.632 19.9682 102.772 20.1525 102.841 20.2633C103.17 20.7929 103.32 20.9805 103.37 20.9264C103.4 20.894 103.424 20.9351 103.424 21.0178C103.424 21.1005 103.477 21.168 103.54 21.168C103.604 21.168 103.651 21.2388 103.644 21.3253C103.638 21.4123 103.68 21.4728 103.737 21.4604C103.794 21.448 103.835 21.4685 103.828 21.5058C103.8 21.6479 103.948 21.8884 104.063 21.8884C104.13 21.8884 104.161 21.929 104.133 21.9787C104.104 22.0279 104.117 22.0684 104.16 22.0684C104.203 22.0684 104.259 22.1538 104.284 22.2576C104.313 22.3781 104.367 22.4224 104.432 22.3792C104.491 22.3392 104.512 22.3484 104.482 22.4013C104.415 22.5181 104.872 22.9937 104.964 22.9029C105.003 22.865 105.007 22.885 104.975 22.9466C104.942 23.0088 104.954 23.0596 105.003 23.0596C105.051 23.0596 105.091 23.1217 105.091 23.198C105.091 23.2747 105.241 23.4909 105.424 23.6795C105.608 23.8681 105.758 24.0708 105.758 24.1302C105.758 24.1891 105.908 24.3918 106.092 24.5804C106.275 24.769 106.425 24.9728 106.425 25.0333C106.425 25.1776 106.64 25.4089 106.707 25.3371C106.735 25.3063 106.758 25.3236 106.758 25.3754C106.758 25.4279 106.88 25.6024 107.029 25.7646C107.178 25.9262 107.253 26.0299 107.196 25.9948C107.057 25.9099 107.063 26.0143 107.207 26.1694C107.27 26.2375 107.345 26.2683 107.373 26.238C107.402 26.2072 107.425 26.2396 107.425 26.3104C107.425 26.3812 107.5 26.4893 107.592 26.5515C107.683 26.6131 107.758 26.7239 107.758 26.7974C107.758 26.9903 108.1 27.387 108.208 27.3205C108.259 27.2897 108.273 27.2962 108.24 27.3357C108.162 27.4292 108.454 27.8767 108.88 28.3171C109.065 28.509 109.17 28.6387 109.112 28.6046C109.055 28.5711 109.008 28.569 109.008 28.6003C109.008 28.6711 109.236 28.9219 109.297 28.9176C109.321 28.9159 109.339 28.9376 109.336 28.9662C109.333 28.9949 109.408 29.0905 109.503 29.1797C109.597 29.2683 109.675 29.3894 109.675 29.4494C109.675 29.5861 109.883 29.8153 110.007 29.8153C110.059 29.8153 110.082 29.8482 110.059 29.8888C110.036 29.9293 110.09 30.0196 110.179 30.0887C110.269 30.1584 110.342 30.2871 110.342 30.3752C110.342 30.4638 110.381 30.5357 110.43 30.5357C110.478 30.5357 110.491 30.4887 110.459 30.4319C110.423 30.3687 110.436 30.3519 110.492 30.3898C110.543 30.4238 110.563 30.5108 110.537 30.5838C110.508 30.6665 110.541 30.7157 110.627 30.7157C110.702 30.7157 110.788 30.787 110.818 30.8735C110.848 30.9599 110.94 31.0842 111.024 31.1486C111.107 31.2134 111.175 31.3453 111.175 31.4415C111.175 31.5398 111.232 31.6166 111.305 31.6166C111.376 31.6166 111.418 31.6469 111.397 31.6841C111.348 31.7722 111.558 31.983 111.624 31.9117C111.652 31.8814 111.675 31.9241 111.675 32.0068C111.675 32.0895 111.712 32.157 111.758 32.157C111.804 32.157 111.842 32.216 111.842 32.2878C111.842 32.3597 111.907 32.4597 111.987 32.51C112.068 32.5608 112.101 32.6029 112.062 32.6045C112.023 32.6062 112.107 32.7251 112.249 32.8688C112.392 33.0126 112.508 33.1526 112.508 33.1807C112.508 33.2082 112.659 33.3914 112.842 33.5876C113.025 33.7838 113.175 34.0097 113.175 34.0892C113.175 34.1692 113.232 34.2578 113.3 34.2864C113.369 34.3145 113.425 34.3772 113.425 34.4248C113.425 34.5442 113.643 34.7691 113.758 34.7691C113.81 34.7691 113.829 34.8096 113.801 34.8593C113.738 34.9685 113.959 35.3333 114.037 35.249C114.067 35.2165 114.092 35.2571 114.092 35.3398C114.092 35.4225 114.151 35.49 114.222 35.49C114.293 35.49 114.329 35.5306 114.3 35.5797C114.272 35.6295 114.279 35.67 114.317 35.67C114.354 35.67 114.433 35.7873 114.491 35.9305C114.55 36.0737 114.672 36.2121 114.762 36.2375C114.852 36.2629 114.925 36.3483 114.925 36.4272C114.925 36.5061 114.954 36.5709 114.988 36.5709C115.023 36.5709 115.101 36.6925 115.162 36.8412C115.223 36.9898 115.328 37.1114 115.396 37.1114C115.463 37.1114 115.5 37.1443 115.476 37.1849C115.453 37.2254 115.507 37.3157 115.597 37.3848C115.686 37.4546 115.759 37.5556 115.759 37.6097C115.759 37.6632 115.946 37.894 116.175 38.1209C116.405 38.3485 116.592 38.5825 116.592 38.6409C116.592 38.6992 116.742 38.9024 116.925 39.0927C117.109 39.2835 117.26 39.4926 117.261 39.5585C117.262 39.6245 117.412 39.818 117.594 39.9882C117.776 40.1585 117.925 40.3525 117.925 40.419C117.925 40.4854 118.047 40.6767 118.196 40.8437C118.345 41.0107 118.558 41.3118 118.669 41.5123C118.78 41.7128 118.902 41.856 118.94 41.8306C118.978 41.8052 119.009 41.8479 119.009 41.9247C119.009 42.0019 119.054 42.0554 119.109 42.043C119.164 42.0306 119.211 42.0819 119.213 42.157C119.218 42.3354 119.547 42.7861 119.672 42.7861C119.725 42.7861 119.746 42.8267 119.718 42.8759C119.689 42.9256 119.706 42.9661 119.754 42.9661C119.803 42.9661 119.843 43.0266 119.843 43.1012C119.843 43.1753 119.905 43.2363 119.981 43.2363C120.058 43.2363 120.097 43.2612 120.069 43.292C120.005 43.3612 120.214 43.5968 120.339 43.5968C120.389 43.5968 120.453 43.7184 120.48 43.867C120.508 44.0162 120.583 44.1373 120.65 44.1373C120.715 44.1373 120.751 44.1686 120.729 44.2075C120.707 44.2464 120.798 44.3729 120.932 44.488C121.066 44.6037 121.176 44.7572 121.176 44.829C121.176 44.989 121.386 45.2311 121.458 45.1539C121.486 45.1231 121.509 45.1495 121.509 45.2128C121.509 45.6673 121.558 45.6716 126.796 45.6932L131.676 45.7132V45.4657C131.676 45.2944 131.633 45.2182 131.538 45.2182C131.461 45.2182 131.421 45.1933 131.449 45.1636C131.515 45.0923 131.32 44.8642 131.239 44.9177C131.205 44.9398 131.176 44.8993 131.176 44.8274C131.176 44.7555 131.118 44.6723 131.046 44.6426C130.974 44.6129 130.938 44.5502 130.965 44.5037C130.991 44.4567 130.947 44.3767 130.866 44.3253C130.784 44.2745 130.75 44.2313 130.789 44.2297C130.829 44.2286 130.744 44.1097 130.602 43.9659C130.46 43.8222 130.343 43.6768 130.343 43.6433C130.343 43.6098 130.193 43.4266 130.01 43.2363C129.826 43.0461 129.676 42.845 129.676 42.7894C129.676 42.7342 129.526 42.5343 129.343 42.3457C129.16 42.1576 129.01 41.9533 129.01 41.8928C129.01 41.8317 128.963 41.7317 128.906 41.6696C128.848 41.6074 128.708 41.428 128.593 41.2712C128.479 41.1145 128.342 40.9859 128.29 40.9853C128.238 40.9848 128.2 40.9135 128.207 40.827C128.213 40.7394 128.169 40.68 128.108 40.694C128.047 40.7076 128.021 40.6767 128.051 40.6259C128.111 40.5195 127.89 40.2433 127.811 40.3282C127.783 40.359 127.76 40.3163 127.76 40.2336C127.76 40.1514 127.731 40.0839 127.697 40.0839C127.662 40.0839 127.584 39.9623 127.523 39.8136C127.462 39.665 127.357 39.5434 127.29 39.5434C127.222 39.5434 127.184 39.5126 127.204 39.4759C127.243 39.4072 127.119 39.2505 126.969 39.1781C126.923 39.1559 126.896 39.0927 126.907 39.037C126.919 38.9813 126.778 38.7889 126.594 38.6095C126.41 38.4295 126.26 38.2404 126.26 38.1885C126.26 38.1372 126.11 37.9404 125.926 37.7518C125.743 37.5637 125.593 37.3611 125.593 37.3016C125.593 37.2427 125.443 37.04 125.259 36.8514C125.076 36.6628 124.926 36.4412 124.926 36.3596C124.926 36.2775 124.868 36.2104 124.798 36.2104C124.728 36.2104 124.646 36.1396 124.617 36.0526C124.587 35.9662 124.494 35.8294 124.411 35.7494C124.327 35.6694 124.259 35.5376 124.259 35.4565C124.259 35.376 124.201 35.3095 124.129 35.3095C124.058 35.3095 124.016 35.2792 124.037 35.242C124.087 35.1539 123.876 34.9436 123.81 35.015C123.782 35.0447 123.759 35.002 123.759 34.9193C123.759 34.8366 123.725 34.7691 123.683 34.7691C123.641 34.7691 123.537 34.6172 123.452 34.4313C123.367 34.2459 123.252 34.1038 123.195 34.1162C123.139 34.1286 123.099 34.1081 123.106 34.0713C123.134 33.9286 122.986 33.6881 122.87 33.6881C122.804 33.6881 122.773 33.6476 122.801 33.5974C122.862 33.4909 122.651 33.2379 122.501 33.2379C122.445 33.2379 122.423 33.2109 122.453 33.1785C122.483 33.1455 122.433 33.0623 122.342 32.9931C122.251 32.9239 122.175 32.7986 122.174 32.7148C122.173 32.631 122.023 32.4229 121.841 32.2527C121.658 32.0819 121.509 31.869 121.509 31.7798C121.509 31.6901 121.451 31.6166 121.379 31.6166C121.308 31.6166 121.268 31.5847 121.29 31.5458C121.312 31.5074 121.22 31.381 121.086 31.2658C120.952 31.1502 120.843 30.9794 120.843 30.8859C120.843 30.7902 120.784 30.7157 120.71 30.7157C120.637 30.7157 120.558 30.6362 120.534 30.5389C120.511 30.4411 120.42 30.3373 120.334 30.3076C120.247 30.2779 120.176 30.172 120.176 30.072C120.176 29.9725 120.026 29.7353 119.843 29.545C119.659 29.3543 119.509 29.151 119.509 29.0927C119.509 29.0343 119.335 28.8084 119.12 28.5901C118.907 28.3723 118.758 28.1939 118.789 28.1939C118.82 28.1939 118.723 28.0566 118.573 27.8885C118.247 27.5237 118.17 27.4135 118.017 27.0935C117.953 26.959 117.868 26.8698 117.83 26.8963C117.791 26.9222 117.759 26.8801 117.759 26.8028C117.759 26.7255 117.7 26.6623 117.629 26.6623C117.557 26.6623 117.522 26.6217 117.55 26.5725C117.579 26.5228 117.571 26.4823 117.534 26.4823C117.497 26.4823 117.417 26.3618 117.356 26.2142C117.296 26.0667 117.221 25.9553 117.19 25.9667C117.159 25.9775 117.127 25.9532 117.118 25.9126C117.11 25.8716 117.016 25.7559 116.91 25.6549C116.804 25.5543 116.727 25.4333 116.74 25.3862C116.752 25.3392 116.602 25.1339 116.406 24.9296C116.211 24.7258 116.058 24.5312 116.067 24.4977C116.094 24.3994 115.537 23.7789 115.479 23.8427C115.449 23.8741 115.425 23.8168 115.425 23.7157C115.425 23.6141 115.275 23.3839 115.092 23.205L114.758 22.8791L114.987 22.6002C115.114 22.4473 115.222 22.2851 115.228 22.2403C115.233 22.1954 115.243 22.116 115.248 22.063C115.254 22.0106 115.287 21.9863 115.321 22.009C115.403 22.0619 115.598 21.8344 115.532 21.7631C115.504 21.7328 115.527 21.7085 115.584 21.7085C115.714 21.7085 115.936 21.4739 115.906 21.3685C115.894 21.3253 116.043 21.1237 116.238 20.9205C116.587 20.5562 116.691 20.38 116.488 20.4962C116.431 20.5287 116.5 20.44 116.642 20.2984C116.784 20.1574 116.906 20.0114 116.913 19.9741C116.92 19.9374 116.946 19.9082 116.97 19.9098C117.031 19.9142 117.259 19.6634 117.259 19.5926C117.259 19.5612 117.212 19.5623 117.155 19.5953C117.097 19.6277 117.172 19.5337 117.321 19.3861C117.47 19.2381 117.592 19.0651 117.592 19.0019C117.592 18.9381 117.617 18.9127 117.647 18.9451C117.725 19.0294 117.946 18.6646 117.884 18.5555C117.855 18.5063 117.877 18.4657 117.932 18.4657C118.048 18.4657 118.342 18.1204 118.342 17.9837C118.342 17.9318 118.53 17.6988 118.759 17.4664C118.988 17.2341 119.175 16.986 119.175 16.9163C119.175 16.846 119.325 16.6487 119.507 16.4785C119.69 16.3083 119.84 16.1067 119.841 16.031C119.842 15.9553 119.918 15.8348 120.009 15.7635C120.101 15.6921 120.176 15.5749 120.176 15.503C120.176 15.4316 120.199 15.3981 120.228 15.4289C120.294 15.5003 120.509 15.2695 120.509 15.1263C120.509 15.0663 120.622 14.9009 120.759 14.7588C120.897 14.6166 121.009 14.454 121.009 14.3961C121.009 14.3388 121.032 14.3172 121.061 14.348C121.135 14.4275 121.343 14.181 121.343 14.014C121.343 13.9367 121.418 13.8227 121.509 13.7606C121.601 13.6989 121.676 13.5903 121.676 13.5195C121.676 13.4493 121.699 13.4163 121.728 13.4471C121.8 13.526 122.009 13.2817 122.009 13.1174C122.009 13.0428 122.084 12.9245 122.175 12.8553C122.267 12.7861 122.317 12.7029 122.286 12.6699C122.256 12.6375 122.298 12.6105 122.379 12.6105C122.474 12.6105 122.51 12.564 122.481 12.4802C122.448 12.3883 122.474 12.3662 122.57 12.4056C122.671 12.4478 122.691 12.424 122.651 12.3111C122.617 12.2154 122.639 12.1603 122.711 12.1603C122.821 12.1603 122.966 11.916 122.939 11.7776C122.932 11.7403 122.969 11.7198 123.022 11.7322C123.075 11.7447 123.179 11.6333 123.252 11.4847C123.325 11.3361 123.431 11.1821 123.488 11.1426C123.546 11.1026 123.593 11.0048 123.593 10.9248C123.593 10.8448 123.616 10.8043 123.644 10.8351C123.711 10.907 123.926 10.6751 123.926 10.5314C123.926 10.4708 124.076 10.2665 124.259 10.0785C124.443 9.88983 124.593 9.68987 124.593 9.63474C124.593 9.57907 124.743 9.37802 124.926 9.18779C125.109 8.99755 125.259 8.79488 125.259 8.73759C125.259 8.6803 125.409 8.47763 125.593 8.28685C125.776 8.09661 125.926 7.8907 125.926 7.82963C125.926 7.76856 126.076 7.57994 126.26 7.41023C126.451 7.23351 126.593 7.02165 126.593 6.9141C126.593 6.81033 126.616 6.75034 126.644 6.78061C126.71 6.85195 126.92 6.64117 126.871 6.55308C126.85 6.51578 126.878 6.48552 126.933 6.48552C127.056 6.48552 127.426 6.02992 127.426 5.87751C127.426 5.81536 127.464 5.7651 127.51 5.7651C127.556 5.7651 127.584 5.73429 127.572 5.69754C127.561 5.66025 127.589 5.61269 127.635 5.59107C127.8 5.51433 127.936 5.31382 127.884 5.22302C127.855 5.17168 127.88 5.14087 127.941 5.15492C128.002 5.16844 128.046 5.10953 128.04 5.02197C128.033 4.93496 128.08 4.86416 128.144 4.86416C128.208 4.86416 128.26 4.80093 128.26 4.72364C128.26 4.64636 128.289 4.60312 128.325 4.6269C128.361 4.65122 128.555 4.4064 128.757 4.08266C128.958 3.75947 129.173 3.47466 129.233 3.44925C129.294 3.42439 129.343 3.34387 129.343 3.2709C129.343 3.19848 129.493 2.97798 129.676 2.78179C129.86 2.58561 130.01 2.4024 130.01 2.37483C130.01 2.34673 130.126 2.20675 130.269 2.06299C130.411 1.91923 130.495 1.80033 130.456 1.79871C130.417 1.79709 130.45 1.75493 130.531 1.70413C130.611 1.65387 130.676 1.55388 130.676 1.482C130.676 1.41012 130.714 1.35121 130.76 1.35121C130.806 1.35121 130.843 1.28798 130.843 1.2107C130.843 1.13341 130.871 1.08855 130.906 1.11125C130.987 1.16476 131.182 0.936687 131.116 0.865347C131.088 0.835082 131.128 0.810762 131.204 0.810762C131.296 0.810762 131.343 0.736179 131.343 0.591878C131.343 0.451901 131.403 0.351917 131.51 0.315166C131.601 0.28382 131.676 0.20005 131.676 0.12925C131.676 0.0184573 130.973 8.1892e-05 126.773 8.1892e-05C121.455 8.1892e-05 121.654 -0.0177531 121.485 0.472978C121.455 0.559451 121.374 0.630791 121.304 0.630791C121.233 0.630791 121.176 0.697266 121.176 0.778334C121.176 0.859943 121.067 1.03937 120.933 1.17665C120.8 1.31446 120.712 1.45066 120.739 1.4793C120.765 1.50795 120.741 1.53119 120.684 1.53119C120.541 1.53119 120.343 1.76034 120.343 1.92518C120.343 2.0003 120.258 2.12568 120.155 2.20351C120.052 2.28188 119.977 2.3651 119.988 2.38888C120 2.41266 119.997 2.42185 119.982 2.40942C119.898 2.33862 119.684 2.71099 119.732 2.84557C119.767 2.94285 119.755 2.98014 119.701 2.94447C119.619 2.88934 119.361 3.1239 119.349 3.2655C119.345 3.30225 119.329 3.32279 119.313 3.31036C119.239 3.25253 119.009 3.55464 119.009 3.70975C119.009 3.80541 118.975 3.86162 118.934 3.83406C118.853 3.78001 118.72 4.04159 118.752 4.18859C118.764 4.23832 118.746 4.25021 118.714 4.21562C118.635 4.12968 118.425 4.36694 118.425 4.54259C118.425 4.62042 118.394 4.68419 118.356 4.68419C118.318 4.68419 118.237 4.78525 118.175 4.90902C118.114 5.03278 118.047 5.11601 118.026 5.09331C117.972 5.03494 117.759 5.28301 117.759 5.40515C117.759 5.46244 117.609 5.66457 117.425 5.85481C117.242 6.04559 117.092 6.24826 117.092 6.30555C117.092 6.36284 116.942 6.56551 116.759 6.75575C116.575 6.94599 116.425 7.15838 116.425 7.22702C116.425 7.29566 116.276 7.4913 116.094 7.66209C115.912 7.83233 115.762 8.00203 115.761 8.03878C115.76 8.07553 115.571 8.31279 115.342 8.56572C115.113 8.81866 114.925 9.0624 114.925 9.10672C114.925 9.15103 114.775 9.35478 114.592 9.55908C114.409 9.76283 114.259 9.96982 114.259 10.0185C114.259 10.0666 114.143 10.2228 114.002 10.3654C113.861 10.5076 113.77 10.6665 113.8 10.7189C113.83 10.7708 113.808 10.8027 113.751 10.7886C113.695 10.7751 113.621 10.8654 113.587 10.9891C113.553 11.1134 113.521 11.174 113.516 11.1242C113.51 11.075 113.428 11.1658 113.332 11.3269C113.237 11.488 113.125 11.6198 113.084 11.6198C113.043 11.6198 113.009 11.6836 113.009 11.762C113.009 11.8403 112.859 12.0646 112.675 12.2608C112.492 12.457 112.342 12.6521 112.342 12.6942C112.342 12.7359 112.232 12.865 112.098 12.9801C111.964 13.0958 111.87 13.2174 111.889 13.2515C111.908 13.285 111.866 13.3368 111.794 13.366C111.723 13.3958 111.688 13.4611 111.717 13.5114C111.745 13.5617 111.71 13.6271 111.639 13.6568C111.567 13.6865 111.508 13.7697 111.508 13.8416C111.508 13.9135 111.48 13.954 111.446 13.9313C111.364 13.8784 111.169 14.1059 111.235 14.1772C111.263 14.2075 111.224 14.2318 111.147 14.2318C111.055 14.2318 111.008 14.307 111.008 14.4572C111.008 14.581 110.976 14.6826 110.938 14.6826C110.82 14.6826 110.507 15.0117 110.565 15.0744C110.595 15.1063 110.573 15.1328 110.516 15.1328C110.384 15.1328 110.175 15.3571 110.175 15.4987C110.175 15.5581 110.097 15.6797 110.003 15.7683C109.908 15.857 109.836 15.9624 109.842 16.0018C109.849 16.0418 109.814 16.0888 109.764 16.1061C109.715 16.124 109.675 16.084 109.675 16.0175C109.675 15.951 109.6 15.8462 109.508 15.784C109.417 15.7224 109.342 15.5911 109.342 15.4922C109.342 15.39 109.286 15.3127 109.212 15.3127C109.14 15.3127 109.1 15.2814 109.122 15.2425C109.144 15.2036 109.053 15.0771 108.919 14.962C108.785 14.8463 108.675 14.6945 108.675 14.6242C108.675 14.4837 108.132 13.8578 108.069 13.9259C108.048 13.9492 107.964 13.8146 107.884 13.6271C107.696 13.1904 107.509 12.9601 107.401 13.032C107.352 13.0645 107.341 13.0445 107.375 12.985C107.408 12.9277 107.395 12.8807 107.347 12.8807C107.298 12.8807 107.258 12.8169 107.258 12.7391C107.258 12.5705 107.062 12.3402 106.917 12.3402C106.86 12.3402 106.837 12.3154 106.865 12.2846C106.926 12.2192 106.723 11.9803 106.606 11.9803C106.562 11.9803 106.504 11.9171 106.476 11.8403C106.448 11.7603 106.462 11.7241 106.509 11.7555C106.72 11.896 106.553 11.6328 106.256 11.355C106.074 11.1848 105.924 10.9891 105.924 10.9205C105.924 10.7659 105.713 10.5276 105.643 10.6032C105.614 10.634 105.591 10.5913 105.591 10.5087C105.591 10.4265 105.534 10.3589 105.464 10.3589C105.389 10.3589 105.316 10.2471 105.287 10.0887C105.259 9.93901 105.184 9.81849 105.117 9.81849C105.052 9.81849 105.015 9.78769 105.036 9.75094C105.085 9.66284 104.874 9.45207 104.808 9.52341C104.78 9.55367 104.758 9.51044 104.758 9.42775C104.758 9.3456 104.72 9.27804 104.674 9.27804C104.629 9.27804 104.591 9.21373 104.591 9.1359C104.591 9.05754 104.432 8.82784 104.237 8.62571C104.042 8.42358 103.883 8.22254 103.883 8.17984C103.883 8.1366 103.705 7.92475 103.487 7.70856C103.269 7.49238 103.091 7.27404 103.091 7.22378C103.091 7.17298 102.967 6.99355 102.816 6.82546C102.665 6.65684 102.492 6.3904 102.431 6.23313C102.371 6.07586 102.289 5.96939 102.248 5.99641C102.208 6.02343 102.174 5.98236 102.174 5.90561C102.174 5.82833 102.116 5.7651 102.044 5.7651C101.973 5.7651 101.938 5.72456 101.966 5.67484C101.994 5.62512 101.978 5.58458 101.929 5.58458C101.881 5.58458 101.841 5.52892 101.841 5.46028C101.841 5.39218 101.7 5.17816 101.529 4.98522C101.357 4.79228 101.163 4.52367 101.098 4.3891C101.033 4.25399 100.923 4.14374 100.855 4.14374C100.786 4.14374 100.753 4.11888 100.781 4.08915C100.847 4.01781 100.652 3.78974 100.57 3.84324C100.536 3.8654 100.507 3.81082 100.505 3.7211C100.502 3.51843 100.315 3.2428 100.181 3.2428C100.126 3.2428 100.1 3.20983 100.123 3.1693C100.147 3.12877 100.092 3.03851 100.003 2.96933C99.914 2.89961 99.841 2.79098 99.841 2.72775C99.841 2.66398 99.7785 2.61209 99.702 2.61209C99.6255 2.61209 99.5845 2.58885 99.611 2.56021C99.6375 2.53156 99.55 2.39537 99.4165 2.25755C99.2835 2.12028 99.174 1.94085 99.174 1.85924C99.174 1.77817 99.12 1.7117 99.054 1.7117C98.9875 1.7117 98.867 1.5901 98.786 1.44147C98.7045 1.29285 98.6089 1.17124 98.5729 1.17124C98.5369 1.17124 98.5074 1.10747 98.5074 1.03019C98.5074 0.95236 98.3174 0.68916 98.0854 0.444875L97.6629 8.1892e-05H92.7515C88.3587 8.1892e-05 87.8401 0.0146741 87.8401 0.1406ZM139.281 3.76056L139.302 7.52157L146.657 7.54427L154.012 7.56751V26.6644V45.7619L157.761 45.7565C159.823 45.7538 161.506 45.7224 161.501 45.6873C161.496 45.6522 161.497 37.0606 161.502 26.5947L161.512 7.56643H168.631C172.546 7.56643 175.809 7.54156 175.881 7.51184C175.999 7.4632 176.013 7.04543 176.013 3.72867V8.1892e-05H157.636H139.259L139.281 3.76056ZM102.279 26.0818C102.221 26.1494 102.174 26.2521 102.174 26.3104C102.174 26.3682 102.106 26.4817 102.022 26.5617C101.938 26.6417 101.802 26.819 101.72 26.9552C101.639 27.0914 101.52 27.2027 101.456 27.2027C101.393 27.2027 101.341 27.2692 101.341 27.3508C101.341 27.4319 101.232 27.6113 101.099 27.7491C100.965 27.8869 100.878 28.0231 100.904 28.0518C100.931 28.0804 100.89 28.1036 100.813 28.1036C100.737 28.1036 100.674 28.1442 100.674 28.1934C100.674 28.2431 100.526 28.4495 100.344 28.6522C100.162 28.8549 100.016 29.0473 100.02 29.0802C100.039 29.2359 100.002 29.3888 99.957 29.3402C99.891 29.2689 99.68 29.4791 99.7295 29.5672C99.7505 29.6045 99.725 29.6347 99.673 29.6347C99.5385 29.6347 99.3215 29.8888 99.3755 29.9833C99.4005 30.0271 99.33 30.1363 99.2195 30.2265C99.1085 30.3163 99.036 30.4227 99.059 30.4627C99.082 30.5027 99.0585 30.5357 99.0065 30.5357C98.872 30.5357 98.6549 30.7897 98.7089 30.8837C98.7339 30.9275 98.6614 31.0388 98.5474 31.1313C98.4339 31.2237 98.3409 31.3572 98.3409 31.428C98.3409 31.4988 98.3159 31.5296 98.2859 31.4972C98.2079 31.4128 97.9869 31.7776 98.0494 31.8868C98.0774 31.9365 98.0584 31.9771 98.0064 31.9771C97.8914 31.9771 97.6739 32.2019 97.6739 32.3213C97.6739 32.3689 97.6179 32.4316 97.5489 32.4597C97.4804 32.4883 97.4239 32.577 97.4239 32.657C97.4239 32.7364 97.2738 32.9623 97.0908 33.1585C96.9073 33.3547 96.7573 33.5417 96.7573 33.5747C96.7573 33.6071 96.5698 33.8243 96.3408 34.0567C96.1113 34.2897 95.9237 34.5286 95.9237 34.5885C95.9237 34.648 95.8127 34.809 95.6767 34.9463C95.5407 35.0836 95.4532 35.2214 95.4822 35.2528C95.5112 35.2841 95.4727 35.3095 95.3962 35.3095C95.3142 35.3095 95.2572 35.3814 95.2572 35.4846C95.2572 35.5808 95.1892 35.7127 95.1057 35.7775C95.0227 35.8424 94.9302 35.9662 94.9002 36.0526C94.8702 36.1396 94.7881 36.2104 94.7181 36.2104C94.6481 36.2104 94.5906 36.2872 94.5906 36.3807C94.5906 36.4742 94.4806 36.645 94.3466 36.7601C94.2126 36.8757 94.1211 37.0017 94.1431 37.0406C94.1656 37.0795 94.1251 37.1114 94.0536 37.1114C93.9821 37.1114 93.9236 37.1865 93.9236 37.2784C93.9236 37.3703 93.8076 37.5497 93.6651 37.6772C93.5226 37.8042 93.4295 37.9496 93.458 37.9993C93.4865 38.0491 93.466 38.1188 93.412 38.155C93.351 38.1955 93.337 38.1809 93.374 38.1161C93.4065 38.0588 93.3941 38.0118 93.3455 38.0118C93.2965 38.0118 93.257 38.0918 93.257 38.189C93.257 38.2863 93.181 38.4101 93.088 38.4636C92.995 38.5176 92.9415 38.6009 92.969 38.649C92.997 38.6976 92.978 38.7257 92.9275 38.7122C92.8775 38.6987 92.7715 38.8046 92.6925 38.9478C92.6135 39.0905 92.427 39.338 92.278 39.4975C92.129 39.6564 92.0069 39.8396 92.0069 39.9039C92.0069 39.9688 91.8594 40.173 91.6789 40.359C91.4984 40.5443 91.3734 40.7205 91.4014 40.7502C91.4289 40.78 91.3889 40.8043 91.3124 40.8043C91.2359 40.8043 91.1734 40.8702 91.1734 40.9513C91.1734 41.0324 91.1054 41.1642 91.0219 41.2442C90.9384 41.3242 90.8459 41.4609 90.8164 41.5474C90.7864 41.6339 90.7048 41.7052 90.6343 41.7052C90.5643 41.7052 90.5068 41.7722 90.5068 41.8539C90.5068 41.936 90.3568 42.1576 90.1733 42.3457C89.9903 42.5343 89.8403 42.737 89.8403 42.7964C89.8403 42.8553 89.6903 43.058 89.5068 43.2466C89.3232 43.4352 89.1732 43.6228 89.1732 43.6633C89.1732 43.7038 89.1002 43.7941 89.0112 43.8633C88.9222 43.933 88.8677 44.0227 88.8912 44.0632C88.9142 44.1038 88.8882 44.1373 88.8332 44.1373C88.6997 44.1373 88.5127 44.4129 88.5092 44.6156C88.5077 44.7047 88.4692 44.7534 88.4232 44.7226C88.3777 44.6918 88.3402 44.7366 88.3402 44.8226C88.3402 44.908 88.3157 44.9517 88.2862 44.9193C88.2562 44.8874 88.1437 44.9717 88.0361 45.1068C87.8311 45.3646 87.7751 45.5424 87.9316 45.4376C87.9971 45.3938 87.9966 45.43 87.9301 45.5646L87.8366 45.7527L92.7155 45.757L97.5939 45.7613L97.8839 45.4473C98.0434 45.2749 98.1739 45.089 98.1739 45.0339C98.1739 44.9788 98.3224 44.7799 98.5034 44.5913C98.685 44.4032 98.81 44.2237 98.7815 44.1929C98.753 44.1621 98.792 44.1373 98.8685 44.1373C98.945 44.1373 99.0075 44.0708 99.0075 43.9892C99.0075 43.9081 99.1165 43.7287 99.25 43.5909C99.3835 43.4531 99.471 43.3169 99.4445 43.2882C99.418 43.2596 99.459 43.2363 99.5355 43.2363C99.6115 43.2363 99.674 43.1845 99.674 43.1212C99.674 43.058 99.747 42.9488 99.8365 42.8796C99.9255 42.8099 99.9795 42.7202 99.9565 42.6797C99.9335 42.6391 99.969 42.6056 100.036 42.6056C100.144 42.6056 100.273 42.4116 100.292 42.2197C100.296 42.1808 100.34 42.1198 100.389 42.0846C100.438 42.0495 100.502 41.9495 100.532 41.8625C100.562 41.776 100.639 41.7052 100.705 41.7052C100.804 41.7052 100.929 41.528 100.959 41.3447C100.963 41.3199 101.126 41.1226 101.32 40.9059C101.515 40.6897 101.674 40.4562 101.674 40.3881C101.674 40.3195 101.714 40.2638 101.763 40.2638C101.811 40.2638 101.828 40.2233 101.799 40.1736C101.771 40.1244 101.806 40.0839 101.878 40.0839C101.949 40.0839 102.008 40.0206 102.008 39.9434C102.008 39.8661 102.04 39.8245 102.079 39.8504C102.118 39.8763 102.193 39.7963 102.245 39.672C102.346 39.4321 102.437 39.298 102.737 38.9451C102.84 38.8235 102.924 38.6825 102.924 38.6311C102.924 38.5803 103.084 38.3739 103.279 38.1723C103.473 37.9712 103.583 37.8367 103.522 37.8734C103.432 37.9285 103.431 37.908 103.518 37.7572C103.577 37.6562 103.645 37.5854 103.67 37.6005C103.742 37.6432 104.086 37.2265 104.03 37.1654C104.003 37.1357 104.042 37.1114 104.119 37.1114C104.202 37.1114 104.258 37.039 104.258 36.9319C104.258 36.833 104.333 36.7017 104.424 36.6401C104.516 36.5779 104.591 36.4699 104.591 36.3991C104.591 36.3283 104.614 36.2958 104.643 36.3261C104.717 36.4066 104.944 36.138 104.887 36.037C104.86 35.9905 104.882 35.9235 104.936 35.8873C104.997 35.8467 105.011 35.8613 104.974 35.9262C104.941 35.9835 104.954 36.0305 105.003 36.0305C105.051 36.0305 105.091 35.9662 105.091 35.8883C105.091 35.81 105.241 35.59 105.424 35.3998C105.608 35.2095 105.758 34.9971 105.758 34.9285C105.758 34.8598 105.907 34.6642 106.09 34.4934C106.284 34.3113 106.422 34.1027 106.423 33.987C106.424 33.8703 106.493 33.7671 106.593 33.733C106.685 33.7011 106.739 33.6379 106.713 33.5919C106.687 33.546 106.707 33.5082 106.759 33.5082C106.86 33.5082 107.092 33.2888 107.092 33.1942C107.092 33.1628 107.045 33.1639 106.987 33.1969C106.93 33.2293 107.005 33.1477 107.154 33.0153C107.4 32.7969 107.54 32.337 107.362 32.337C107.327 32.337 107.249 32.2154 107.188 32.0662C107.127 31.9176 107.043 31.8187 107.001 31.8468C106.959 31.8744 106.925 31.8495 106.925 31.7912C106.925 31.7333 106.803 31.5647 106.654 31.4166C106.505 31.2691 106.43 31.175 106.487 31.2075C106.545 31.2404 106.592 31.2415 106.592 31.2102C106.592 31.1394 106.363 30.8886 106.303 30.8929C106.278 30.8945 106.261 30.8724 106.264 30.8443C106.267 30.8156 106.182 30.7097 106.076 30.6092C105.97 30.5087 105.893 30.3876 105.905 30.3411C105.934 30.2298 105.716 29.9952 105.583 29.9952C105.526 29.9952 105.504 29.9687 105.534 29.9369C105.564 29.9044 105.504 29.8001 105.402 29.7039C105.3 29.6083 105.213 29.5029 105.209 29.4699C105.187 29.2835 105.057 29.0943 104.952 29.0943C104.886 29.0943 104.85 29.0613 104.873 29.0208C104.897 28.9803 104.842 28.89 104.753 28.8208C104.664 28.7511 104.591 28.6625 104.591 28.6236C104.591 28.5847 104.404 28.3544 104.174 28.1123C103.945 27.8696 103.758 27.628 103.758 27.5756C103.758 27.5232 103.608 27.3194 103.424 27.1233C103.241 26.9271 103.091 26.7217 103.091 26.6666C103.091 26.3618 102.439 25.8927 102.279 26.0818ZM193.89 32.2473C193.921 32.3019 193.793 32.337 193.561 32.337C193.352 32.337 193.181 32.3775 193.181 32.4273C193.181 32.477 193.069 32.5175 192.931 32.5175C192.794 32.5175 192.681 32.5581 192.681 32.6072C192.681 32.657 192.61 32.6975 192.524 32.6975C192.437 32.6975 192.342 32.764 192.313 32.8456C192.284 32.9266 192.238 32.9699 192.212 32.9412C192.186 32.9121 192.075 32.9845 191.966 33.1012C191.858 33.2185 191.693 33.3406 191.599 33.3725C191.505 33.4049 191.45 33.4687 191.476 33.5147C191.503 33.5606 191.466 33.5984 191.394 33.5984C191.323 33.5984 191.269 33.6287 191.274 33.666C191.297 33.8238 191.26 33.9843 191.213 33.933C191.128 33.8416 190.931 34.1108 190.931 34.3178C190.931 34.4232 190.893 34.4848 190.848 34.454C190.802 34.4232 190.764 34.4815 190.764 34.5837C190.764 34.6858 190.731 34.7691 190.69 34.7691C190.649 34.7691 190.618 34.8199 190.62 34.882C190.634 35.2895 190.586 35.583 190.514 35.5349C190.461 35.4997 190.431 35.744 190.431 36.205C190.431 36.6288 190.466 36.9309 190.514 36.9309C190.56 36.9309 190.598 37.0244 190.598 37.1384C190.598 37.2524 190.644 37.4 190.702 37.4665C190.786 37.5654 190.783 37.574 190.681 37.514C190.59 37.4611 190.596 37.4902 190.702 37.621C190.782 37.7199 190.828 37.8237 190.803 37.8502C190.778 37.8772 190.862 38.0037 190.99 38.1312C191.657 38.796 191.887 39.003 191.958 39.003C192.001 39.003 192.098 39.0738 192.173 39.1602C192.362 39.3807 192.649 39.5434 192.847 39.5434C192.939 39.5434 193.015 39.5748 193.015 39.6137C193.015 39.6526 193.118 39.6931 193.244 39.7045C193.37 39.7158 193.486 39.765 193.501 39.8142C193.516 39.8634 193.696 39.9034 193.902 39.9034C194.135 39.9034 194.255 39.9379 194.222 39.9958C194.193 40.0466 194.2 40.0822 194.238 40.0752C194.483 40.0293 194.933 40.0974 194.89 40.1736C194.859 40.2282 194.972 40.2638 195.176 40.2638C195.363 40.2638 195.515 40.3044 195.515 40.3541C195.515 40.4033 195.627 40.4438 195.765 40.4438C195.902 40.4438 196.015 40.4843 196.015 40.5341C196.015 40.5838 196.127 40.6243 196.265 40.6243C196.402 40.6243 196.515 40.6649 196.515 40.714C196.515 40.7638 196.581 40.8043 196.663 40.8043C196.745 40.8043 196.865 40.8854 196.931 40.9843C196.997 41.0837 197.109 41.1648 197.179 41.1653C197.401 41.1669 197.584 41.9522 197.457 42.3592C197.34 42.7343 196.842 43.3266 196.643 43.3266C196.572 43.3266 196.515 43.3671 196.515 43.4163C196.515 43.466 196.4 43.5066 196.26 43.5066C196.12 43.5066 196.022 43.5368 196.044 43.5741C196.113 43.6952 193.976 43.5368 193.759 43.405C193.351 43.1558 192.848 42.5478 192.848 42.3024C192.848 42.1722 192.811 42.0652 192.765 42.0652C192.719 42.0652 192.681 41.9841 192.681 41.8852C192.681 41.7128 192.626 41.7052 191.389 41.7052H190.098V42.0576C190.098 42.2516 190.132 42.424 190.173 42.4408C190.215 42.457 190.26 42.6326 190.274 42.831C190.296 43.152 190.395 43.4676 190.514 43.5968C190.598 43.6871 190.764 44.047 190.764 44.1383C190.764 44.274 191.49 45.0377 191.619 45.0377C191.678 45.0377 191.78 45.1166 191.844 45.2133C191.909 45.3095 191.989 45.37 192.023 45.3473C192.057 45.3246 192.134 45.3576 192.195 45.4198C192.257 45.4825 192.381 45.5473 192.473 45.5641C192.565 45.5808 192.652 45.6316 192.668 45.6765C192.683 45.7219 192.805 45.7586 192.938 45.7586C193.072 45.7586 193.181 45.7916 193.181 45.8327C193.181 46.0391 197.125 46.0451 197.265 45.8386C197.288 45.8046 197.4 45.763 197.515 45.7451C197.629 45.7278 197.742 45.6932 197.765 45.6684C197.837 45.5905 198.527 45.2182 198.599 45.2182C198.725 45.2182 199.765 44.0567 199.765 43.9162C199.765 43.8395 199.795 43.7768 199.831 43.7768C199.924 43.7768 199.94 43.6125 199.986 42.2457C200.029 40.9664 199.974 40.2249 199.843 40.3125C199.8 40.3411 199.765 40.2784 199.765 40.1725C199.765 39.9655 199.568 39.6964 199.484 39.7877C199.455 39.8185 199.432 39.7736 199.432 39.6883C199.432 39.6023 199.394 39.5575 199.349 39.5883C199.303 39.6191 199.265 39.5785 199.265 39.498C199.265 39.418 199.228 39.3775 199.182 39.4083C199.136 39.4386 199.099 39.4007 199.099 39.3235C199.099 39.2462 199.04 39.1829 198.969 39.1829C198.897 39.1829 198.862 39.1424 198.89 39.0927C198.919 39.0435 198.865 39.003 198.77 39.003C198.675 39.003 198.598 38.9668 198.598 38.9224C198.598 38.8019 197.853 38.4479 197.748 38.5187C197.692 38.556 197.679 38.5393 197.715 38.476C197.754 38.4079 197.701 38.3723 197.56 38.3723C197.442 38.3723 197.271 38.3317 197.18 38.282C197.089 38.2328 196.936 38.1485 196.839 38.0955C196.7 38.0188 196.677 38.0231 196.727 38.1177C196.777 38.2139 196.767 38.215 196.677 38.1247C196.615 38.0626 196.42 38.0118 196.243 38.0118C196.05 38.0118 195.942 37.9761 195.973 37.9221C196.004 37.8675 195.891 37.8318 195.686 37.8318C195.5 37.8318 195.348 37.7913 195.348 37.7415C195.348 37.6924 195.236 37.6518 195.098 37.6518C194.961 37.6518 194.848 37.6113 194.848 37.5616C194.848 37.5119 194.736 37.4713 194.598 37.4713C194.461 37.4713 194.348 37.4308 194.348 37.3816C194.348 37.3319 194.273 37.2913 194.181 37.2913C194.09 37.2913 194.015 37.2508 194.015 37.2011C194.015 37.1519 193.96 37.1114 193.893 37.1114C193.56 37.1114 193.181 36.5444 193.181 36.0456C193.181 35.4765 193.889 34.5891 194.343 34.5891C194.465 34.5891 194.615 34.5383 194.677 34.4767C194.767 34.3864 194.777 34.3864 194.73 34.4767C194.698 34.5383 194.711 34.5891 194.76 34.5891C194.808 34.5891 194.848 34.5485 194.848 34.4988C194.848 34.4496 195.036 34.4091 195.265 34.4091C195.494 34.4091 195.681 34.4496 195.681 34.4988C195.681 34.5485 195.831 34.5891 196.015 34.5891C196.198 34.5891 196.348 34.6296 196.348 34.6793C196.348 34.7285 196.416 34.7691 196.499 34.7691C196.582 34.7691 196.778 34.9279 196.935 35.1214C197.093 35.3155 197.25 35.4549 197.285 35.4316C197.32 35.4084 197.348 35.4954 197.348 35.6251C197.348 35.7548 197.379 35.8402 197.417 35.8148C197.455 35.7894 197.483 35.8581 197.479 35.9672C197.473 36.1618 197.496 36.1661 198.702 36.1904L199.932 36.2153V35.5311C199.932 35.0409 199.896 34.808 199.806 34.7107C199.737 34.6356 199.702 34.5372 199.728 34.4918C199.754 34.4464 199.735 34.4091 199.687 34.4091C199.638 34.4091 199.599 34.3443 199.599 34.2648C199.599 34.1859 199.486 34.0076 199.349 33.8687C199.211 33.7298 199.099 33.5741 199.099 33.5233C199.099 33.472 199.022 33.4039 198.929 33.372C198.836 33.3401 198.669 33.2158 198.558 33.0958C198.446 32.9758 198.298 32.8775 198.227 32.8775C198.156 32.8775 198.098 32.8369 198.098 32.7878C198.098 32.738 198.023 32.6975 197.931 32.6975C197.84 32.6975 197.765 32.657 197.765 32.6072C197.765 32.5581 197.69 32.5175 197.598 32.5175C197.506 32.5175 197.431 32.477 197.431 32.4273C197.431 32.3775 197.3 32.337 197.14 32.337C196.979 32.337 196.848 32.2965 196.848 32.2473C196.848 32.1906 196.291 32.157 195.343 32.157C194.361 32.157 193.856 32.1884 193.89 32.2473ZM185.848 37.3816C185.848 40.6843 185.819 42.4257 185.764 42.4257C185.718 42.4257 185.681 42.5332 185.681 42.6651C185.681 43.0077 185.109 43.5968 184.776 43.5968C184.638 43.5968 184.467 43.6606 184.395 43.7384C184.276 43.867 184.252 43.867 184.133 43.7384C184.061 43.6606 183.872 43.5968 183.714 43.5968C183.534 43.5968 183.407 43.5455 183.377 43.4617C183.351 43.3871 183.258 43.3266 183.172 43.3266C183.069 43.3266 183.014 43.2628 183.014 43.1461C183.014 43.0472 182.976 42.9661 182.93 42.9661C182.885 42.9661 182.847 42.885 182.847 42.7861C182.847 42.6867 182.81 42.6056 182.764 42.6056C182.718 42.6056 182.68 42.484 182.68 42.3354V42.0652H181.389H180.097V42.6456C180.097 42.9645 180.135 43.2509 180.18 43.2812C180.226 43.312 180.264 43.4358 180.264 43.5568C180.264 43.6779 180.301 43.7768 180.347 43.7768C180.393 43.7768 180.43 43.8579 180.43 43.9568C180.43 44.0562 180.468 44.1373 180.514 44.1373C180.56 44.1373 180.597 44.1989 180.597 44.274C180.597 44.4686 181.421 45.3349 181.743 45.4792C181.892 45.5457 182.014 45.6359 182.014 45.6792C182.014 45.723 182.123 45.7586 182.257 45.7586C182.39 45.7586 182.515 45.8083 182.534 45.8694C182.583 46.0267 185.745 46.0289 185.834 45.8716C185.869 45.8121 185.976 45.75 186.072 45.7338C186.169 45.7181 186.302 45.6565 186.368 45.5976C186.434 45.5381 186.51 45.5138 186.537 45.543C186.564 45.5722 186.635 45.5106 186.695 45.4068C186.755 45.303 186.853 45.2182 186.912 45.2182C187.056 45.2182 187.764 44.4253 187.764 44.2637C187.764 44.194 187.802 44.1373 187.848 44.1373C187.893 44.1373 187.931 44.0562 187.931 43.9568C187.931 43.8579 187.968 43.7768 188.014 43.7768C188.06 43.7768 188.098 43.6979 188.098 43.6022C188.098 43.506 188.135 43.4023 188.181 43.3714C188.227 43.3406 188.264 43.1963 188.264 43.051C188.264 42.905 188.301 42.7861 188.345 42.7861C188.396 42.7861 188.427 40.8697 188.43 37.5616L188.433 32.337H187.141H185.848V37.3816ZM176.93 42.8818C176.93 42.9283 176.816 42.9661 176.677 42.9661C176.421 42.9661 176.014 43.3277 175.784 43.759C175.659 43.9946 175.64 45.075 175.763 44.9928C175.809 44.962 175.847 45.0214 175.847 45.1241C175.847 45.8046 177.301 46.2807 177.951 45.8127C178.077 45.7219 178.18 45.6743 178.18 45.7073C178.18 45.7397 178.274 45.6651 178.388 45.5414C178.503 45.4176 178.597 45.2133 178.597 45.0868C178.597 44.9609 178.634 44.8577 178.68 44.8577C178.726 44.8577 178.763 44.6345 178.763 44.3621C178.763 44.0897 178.726 43.867 178.68 43.867C178.634 43.867 178.597 43.8043 178.597 43.7276C178.597 43.5476 178.225 43.1461 178.059 43.1461C177.988 43.1461 177.93 43.1055 177.93 43.0564C177.93 43.0066 177.817 42.9661 177.68 42.9661C177.542 42.9661 177.43 42.9315 177.43 42.8899C177.43 42.8477 177.317 42.8099 177.18 42.8056C177.042 42.8013 176.93 42.8359 176.93 42.8818Z" fill="white"/>
</svg>
