<svg width="204" height="66" viewBox="0 0 204 66" fill="none" xmlns="http://www.w3.org/2000/svg">
<g clip-path="url(#clip0_46_2)">
<path d="M55.7702 34.2422C55.3618 33.7998 54.9306 33.3573 54.4765 32.9118C54.7934 32.5963 55.1004 32.2807 55.3977 31.9651C60.9907 26.0127 63.3527 20.0385 61.1639 16.4528C59.0665 13.0094 52.8234 11.9854 45.0089 13.424C44.2411 13.5663 43.4734 13.7272 42.7122 13.9066C42.5652 13.4302 42.4117 12.9599 42.2483 12.4866C39.5956 4.91605 35.3159 -0.00309234 30.9382 1.45849e-06C26.7434 1.45849e-06 22.6859 4.60976 20.0952 11.741C19.8404 12.4464 19.6051 13.1548 19.3863 13.8664C18.8766 13.7488 18.367 13.6375 17.8541 13.5354C9.61156 11.9359 2.97314 12.9909 0.787558 16.5859C-1.30655 20.0293 0.882298 25.66 6.11267 31.3433C6.63211 31.9033 7.16789 32.4539 7.71674 32.9923C7.06988 33.6203 6.45897 34.2484 5.88725 34.8764C0.781024 40.4824 -1.28368 46.0203 0.807159 49.4482C2.96661 52.9937 9.51356 54.1508 17.4816 52.6657C18.1285 52.5451 18.7688 52.4089 19.4091 52.2574C19.6411 53.0308 19.8992 53.795 20.1801 54.556C22.7577 61.5418 26.7891 66 30.9708 66C35.293 66 39.6184 61.2046 42.245 53.9249C42.4541 53.3495 42.6469 52.7524 42.8331 52.1398C43.6564 52.3347 44.4894 52.5049 45.3258 52.6534C53.0031 54.0301 59.0959 52.9504 61.1835 49.5193C63.3429 45.9738 61.1149 40.0276 55.7702 34.2422ZM3.36517 17.9904C4.71115 15.7784 10.1375 14.9152 17.2562 16.3012C17.7103 16.3879 18.1742 16.4869 18.6479 16.5982C17.9521 19.5095 17.462 22.461 17.1778 25.4372C14.61 27.1481 12.163 29.0105 9.85005 31.0215C9.34041 30.5234 8.84383 30.0098 8.36359 29.487C3.87482 24.6204 2.10413 20.0664 3.36517 17.9904ZM16.9099 36.8936C15.1327 35.6158 13.4764 34.3102 11.9768 32.9954C13.4764 31.6898 15.1294 30.3873 16.9066 29.1157C16.8413 30.412 16.8086 31.7083 16.8119 33.0077C16.8152 34.304 16.8478 35.6003 16.9099 36.8936ZM16.9099 49.8968C13.888 50.5341 10.7713 50.6393 7.71021 50.2062C6.01466 50.0793 4.4498 49.2966 3.38478 48.0374C2.11394 45.9584 3.77027 41.5095 8.13817 36.7172C8.68702 36.117 9.2522 35.5323 9.84025 34.963C12.1532 36.9833 14.6067 38.8581 17.1811 40.5721C17.4686 43.5823 17.9619 46.574 18.6643 49.5224C18.0827 49.6617 17.498 49.7854 16.9034 49.8999L16.9099 49.8968ZM41.6537 23.3675C40.4842 22.6714 39.3015 21.9969 38.1058 21.3441C36.9265 20.7006 35.734 20.0818 34.5285 19.4847C36.5965 18.6618 38.6253 17.9595 40.5887 17.3902C41.0493 19.3641 41.4054 21.3596 41.6537 23.3675ZM22.9145 12.6567C25.1328 6.54957 28.4161 2.82155 30.9447 2.82155C33.6399 2.81845 37.1355 6.84039 39.4257 13.3714C39.5759 13.7983 39.7132 14.2284 39.8438 14.6584C36.8382 15.5402 33.898 16.6106 31.0427 17.8605C28.1972 16.5951 25.2635 15.5154 22.2612 14.6244C22.4637 13.9623 22.6793 13.3064 22.9145 12.6567ZM21.5228 17.3562C23.5679 17.9657 25.5804 18.6742 27.5503 19.4755C25.1067 20.6666 22.7283 21.966 20.4121 23.3706C20.693 21.2668 21.0655 19.2496 21.5228 17.3562ZM20.4186 42.6325C21.5718 43.3348 22.7447 44.0093 23.9338 44.6559C25.1459 45.3149 26.3742 45.9491 27.6157 46.5555C25.6294 47.3846 23.6039 48.1179 21.5392 48.749C21.0589 46.7287 20.6865 44.6899 20.4186 42.6325ZM39.4289 53.0153C38.5011 55.809 37.0408 58.4202 35.1133 60.7158C34.1528 62.0461 32.6533 62.9371 30.9741 63.1846C28.4324 63.1846 25.1949 59.6051 22.993 53.6279C22.7316 52.9225 22.4931 52.2078 22.2742 51.4901C25.2896 50.5681 28.2331 49.4544 31.0917 48.1581C33.9731 49.4172 36.9363 50.497 39.968 51.388C39.8014 51.9325 39.6217 52.477 39.4289 53.0153ZM40.69 48.6469C38.7069 48.0653 36.6488 47.3506 34.5514 46.5153C35.734 45.9274 36.9232 45.3056 38.1222 44.6497C39.3538 43.9753 40.5528 43.2853 41.7191 42.5799C41.4871 44.6188 41.1441 46.6421 40.69 48.6469ZM42.2483 32.9954C42.2483 35.0001 42.183 37.0018 42.049 39.0004C40.3306 40.1018 38.5175 41.1785 36.6324 42.2087C34.7507 43.2358 32.8918 44.1794 31.0688 45.0333C29.1479 44.1609 27.2628 43.2235 25.417 42.2149C23.581 41.2125 21.7875 40.1482 20.0364 39.0159C19.873 37.0142 19.7914 35.0094 19.7914 33.0046C19.7914 30.9999 19.8698 28.9982 20.0298 26.9965C23.532 24.7287 27.2106 22.7178 31.0362 20.979C32.931 21.8515 34.7931 22.7889 36.6226 23.7882C38.4586 24.7875 40.2587 25.8425 42.0229 26.9532C42.1732 28.9611 42.2483 30.9751 42.2483 32.9954ZM45.5806 16.1868C52.2778 14.9554 57.3252 15.7846 58.5895 17.8605C59.9388 20.0726 58.008 24.9484 53.173 30.0903C52.9051 30.3749 52.6306 30.6595 52.3432 30.9442C49.9877 28.9301 47.4917 27.0676 44.8717 25.3722C44.607 22.4331 44.1366 19.5126 43.4603 16.6292C44.1823 16.4652 44.888 16.3167 45.5806 16.1868ZM45.1265 29.0075C46.8939 30.2295 48.596 31.5382 50.2196 32.9273C48.6025 34.3381 46.907 35.6684 45.1428 36.9152C45.1951 35.6096 45.2245 34.3009 45.2245 32.9954C45.2245 31.665 45.1918 30.3378 45.1265 29.0075ZM58.6091 48.1117C57.3416 50.1938 52.4477 51.0631 45.8779 49.8875C45.1265 49.7545 44.3555 49.5936 43.5649 49.4049C44.2248 46.4874 44.6756 43.5297 44.9141 40.5535C47.5309 38.8303 50.0171 36.94 52.3595 34.895C52.7711 35.2971 53.1599 35.6993 53.529 36.0953C55.6232 38.2517 57.2795 40.7546 58.4197 43.4802C59.158 44.9343 59.2266 46.6112 58.6091 48.1117ZM27.877 27.8473C24.9008 29.4746 23.8816 33.0789 25.6 35.8973C27.3184 38.7158 31.1244 39.6811 34.1006 38.0537C37.0767 36.4264 38.096 32.8221 36.3776 30.0037C34.6625 27.1852 30.8565 26.2169 27.877 27.8473C27.8803 27.8442 27.877 27.8442 27.877 27.8473Z" fill="#63E0FF"/>
</g>
<path d="M82.3641 49V16.312H94.3641C96.6041 16.312 98.5561 16.792 100.22 17.752C101.916 18.68 103.228 19.944 104.156 21.544C105.084 23.144 105.548 24.936 105.548 26.92C105.548 28.904 105.084 30.696 104.156 32.296C103.228 33.896 101.916 35.16 100.22 36.088C98.5561 37.016 96.6041 37.48 94.3641 37.48H86.3001V32.968H93.5481C95.6601 32.968 97.3561 32.44 98.6361 31.384C99.9161 30.296 100.556 28.808 100.556 26.92C100.556 24.904 99.9161 23.384 98.6361 22.36C97.3561 21.336 95.6601 20.824 93.5481 20.824H86.2521L87.1641 19.72V49H82.3641ZM100.604 49L92.9721 35.416H98.2521L105.884 49H100.604ZM121.141 49.48C118.869 49.48 116.869 48.984 115.141 47.992C113.413 46.968 112.069 45.544 111.109 43.72C110.149 41.896 109.669 39.768 109.669 37.336C109.669 34.872 110.149 32.728 111.109 30.904C112.069 29.08 113.413 27.656 115.141 26.632C116.869 25.608 118.869 25.096 121.141 25.096C123.445 25.096 125.461 25.608 127.189 26.632C128.917 27.656 130.261 29.08 131.221 30.904C132.181 32.728 132.661 34.872 132.661 37.336C132.661 37.56 132.645 37.8 132.613 38.056C132.613 38.28 132.597 38.488 132.565 38.68H114.229V34.552H129.109L127.765 37.336C127.765 34.904 127.221 32.904 126.133 31.336C125.045 29.768 123.381 28.984 121.141 28.984C119.157 28.984 117.573 29.624 116.389 30.904C115.205 32.152 114.613 33.8 114.613 35.848V38.344C114.613 40.488 115.189 42.2 116.341 43.48C117.493 44.728 119.093 45.352 121.141 45.352C123.029 45.352 124.485 44.952 125.509 44.152C126.533 43.352 127.429 42.36 128.197 41.176L131.797 43.432C130.709 45.448 129.301 46.968 127.573 47.992C125.877 48.984 123.733 49.48 121.141 49.48ZM145.907 49.672C144.083 49.672 142.515 49.352 141.203 48.712C139.891 48.072 138.883 47.16 138.179 45.976C137.507 44.76 137.171 43.32 137.171 41.656C137.171 40.12 137.523 38.76 138.227 37.576C138.931 36.36 139.939 35.4 141.251 34.696C142.563 33.992 144.115 33.64 145.907 33.64C148.147 33.64 149.939 34.152 151.283 35.176C152.659 36.168 153.619 37.544 154.163 39.304H151.475V33.304C151.475 32.312 151.139 31.4 150.467 30.568C149.795 29.736 148.611 29.32 146.915 29.32C146.019 29.32 145.027 29.432 143.939 29.656C142.883 29.848 141.779 30.2 140.627 30.712L139.187 27.016C140.499 26.376 141.859 25.896 143.267 25.576C144.675 25.256 146.051 25.096 147.395 25.096C149.411 25.096 151.075 25.464 152.387 26.2C153.699 26.936 154.675 27.928 155.315 29.176C155.955 30.392 156.275 31.768 156.275 33.304V49H152.819L151.619 44.728L154.163 44.008C153.587 45.896 152.563 47.32 151.091 48.28C149.619 49.208 147.891 49.672 145.907 49.672ZM146.771 45.4C148.179 45.4 149.315 45.08 150.179 44.44C151.043 43.768 151.475 42.84 151.475 41.656C151.475 40.44 151.043 39.512 150.179 38.872C149.315 38.232 148.179 37.912 146.771 37.912C145.363 37.912 144.227 38.232 143.363 38.872C142.499 39.512 142.067 40.44 142.067 41.656C142.067 42.84 142.499 43.768 143.363 44.44C144.227 45.08 145.363 45.4 146.771 45.4ZM173.996 49.48C171.596 49.48 169.516 48.968 167.756 47.944C165.996 46.888 164.636 45.448 163.676 43.624C162.716 41.8 162.236 39.688 162.236 37.288C162.236 34.888 162.716 32.776 163.676 30.952C164.636 29.128 165.996 27.704 167.756 26.68C169.516 25.624 171.596 25.096 173.996 25.096C176.268 25.096 178.332 25.72 180.188 26.968C182.044 28.184 183.388 29.816 184.22 31.864L179.66 33.784C179.148 32.44 178.38 31.432 177.356 30.76C176.332 30.056 175.164 29.704 173.852 29.704C171.932 29.704 170.332 30.376 169.052 31.72C167.772 33.032 167.132 34.888 167.132 37.288C167.132 39.688 167.772 41.56 169.052 42.904C170.332 44.216 171.932 44.872 173.852 44.872C175.164 44.872 176.332 44.536 177.356 43.864C178.38 43.16 179.148 42.136 179.66 40.792L184.22 42.712C183.356 44.76 181.996 46.408 180.14 47.656C178.316 48.872 176.268 49.48 173.996 49.48ZM198.178 49.432C196.13 49.432 194.498 48.84 193.282 47.656C192.098 46.44 191.506 44.568 191.506 42.04V25.864V25.576L192.418 20.296H196.306V42.136C196.306 43.032 196.53 43.704 196.978 44.152C197.458 44.6 198.05 44.824 198.754 44.824C199.298 44.824 199.778 44.792 200.194 44.728C200.61 44.664 200.978 44.584 201.298 44.488V48.952C200.882 49.08 200.418 49.192 199.906 49.288C199.426 49.384 198.85 49.432 198.178 49.432ZM187.906 29.992V25.576H201.298V29.992H187.906Z" fill="#63E0FF"/>
<defs>
<clipPath id="clip0_46_2">
<rect width="62" height="66" fill="white"/>
</clipPath>
</defs>
</svg>
