<svg width="30" height="27" viewBox="0 0 30 27" fill="none" xmlns="http://www.w3.org/2000/svg">
    <path d="M23.6546 9.28854C23.2546 8.88854 22.6546 8.88854 22.2546 9.38854C21.8546 9.78854 21.9546 10.3885 22.3546 10.7885C22.8546 11.2885 23.1546 11.9885 23.1546 12.6885C23.1546 13.3885 22.8546 14.0885 22.3546 14.5885C21.9546 14.9885 21.9546 15.5885 22.2546 15.9885C22.4546 16.1885 22.7546 16.2885 22.9546 16.2885C23.1546 16.2885 23.4546 16.1885 23.6546 15.9885C24.6546 15.0885 25.1546 13.8885 25.1546 12.6885C25.1546 11.4885 24.5546 10.0885 23.6546 9.28854Z"
          fill="#1db954"/>
    <path d="M26.7 6.3C26.3 5.9 25.7 5.9 25.3 6.3C24.9 6.7 24.9 7.3 25.3 7.7C26.8 9.1 27.6 11 27.6 13C27.6 15 26.8 16.9 25.3 18.3C24.9 18.7 24.9 19.3 25.3 19.7C25.5 19.9 25.8 20 26 20C26.2 20 26.5 19.9 26.7 19.7C28.6 17.9 29.6 15.6 29.6 13C29.6 10.4 28.6 8.1 26.7 6.3Z"
          fill="#1db954"/>
    <path d="M18.4 0.109009C18.1 -0.0909912 17.7 0.00900869 17.4 0.209009L7.7 7.20901H1C0.4 7.20901 0 7.60901 0 8.20901V18.209C0 18.809 0.4 19.209 1 19.209H7.7L17.4 26.309C17.6 26.409 17.8 26.509 18 26.509C18.2 26.509 18.3 26.509 18.5 26.409C18.8 26.209 19 25.909 19 25.509V1.00901C19 0.609009 18.8 0.209009 18.4 0.109009Z"
          fill="#1db954"/>
</svg>
