<svg width="237" height="66" viewBox="0 0 237 66" fill="none" xmlns="http://www.w3.org/2000/svg">
<g clip-path="url(#clip0_46_22)">
<path d="M0 0H66V66H0V0Z" fill="white"/>
<path d="M0 33V66H66V0H0V33ZM53.1854 30.36C54.7662 30.7268 56.2029 31.5536 57.3144 32.736C57.9263 33.373 58.4582 34.0822 58.8984 34.848C58.8984 34.9325 56.0472 36.8597 54.3101 37.9368C54.2467 37.979 53.9933 37.7045 53.7134 37.2874C53.3963 36.7402 52.9458 36.2823 52.4038 35.9563C51.8618 35.6304 51.2461 35.4471 50.6141 35.4235C48.613 35.2862 47.3246 36.337 47.3352 38.0635C47.3187 38.4934 47.4171 38.9199 47.6203 39.299C48.0586 40.2125 48.877 40.7563 51.443 41.8651C56.1686 43.8979 58.1909 45.239 59.4475 47.1451C60.852 49.2571 61.1635 52.668 60.2131 55.1918C59.1571 57.9374 56.5699 59.8013 52.9109 60.419C51.2397 60.6105 49.5511 60.5927 47.8843 60.3662C45.3297 59.9451 42.9765 58.7186 41.1682 56.8656C40.561 56.195 39.3782 54.4474 39.4522 54.3206C39.6449 54.1776 39.8478 54.0487 40.0594 53.9352L42.504 52.5835L44.3995 51.4853L44.7955 52.0714C45.4638 53.0274 46.3143 53.842 47.2982 54.4685C49.4102 55.5773 52.2931 55.4242 53.7187 54.1411C54.1974 53.671 54.496 53.0478 54.5625 52.3802C54.6291 51.7126 54.4594 51.0428 54.083 50.4874C53.555 49.7534 52.499 49.1357 49.5475 47.8474C46.1419 46.3795 44.6741 45.4714 43.333 44.0246C42.4957 43.07 41.8776 41.9436 41.5219 40.7246C41.2566 39.332 41.2174 37.9057 41.4058 36.5006C42.108 33.2112 44.5738 30.9144 48.1747 30.2333C49.8424 30.0269 51.5316 30.0732 53.1854 30.3706V30.36ZM37.6939 33.1267V35.8301H29.1245V60.2395H23.0472V35.8248H14.4566V33.1848C14.4299 32.2744 14.451 31.3632 14.52 30.455C14.5622 30.4075 19.8 30.4075 26.136 30.4075H37.6622L37.6939 33.1267Z" fill="#007ACC"/>
</g>
<path d="M87.3599 45V25.544H91.0719V45H87.3599ZM80.6719 26.728V23.208H98.0159V26.728H80.6719ZM103.436 43.304L97.2279 29.384H101.068L106.7 42.024L103.436 43.304ZM99.5959 51.08L109.292 29.384H113.132L103.436 51.08H99.5959ZM123.977 45.352C122.569 45.352 121.342 45.0213 120.297 44.36C119.273 43.6987 118.473 42.76 117.897 41.544C117.321 40.328 117.033 38.888 117.033 37.224C117.033 35.56 117.321 34.12 117.897 32.904C118.494 31.6667 119.305 30.7173 120.329 30.056C121.374 29.3733 122.59 29.032 123.977 29.032C125.428 29.032 126.686 29.3733 127.753 30.056C128.841 30.7387 129.684 31.6987 130.281 32.936C130.878 34.152 131.177 35.5813 131.177 37.224C131.177 38.824 130.878 40.2427 130.281 41.48C129.684 42.696 128.841 43.6453 127.753 44.328C126.665 45.0107 125.406 45.352 123.977 45.352ZM115.817 51.08V29.384H118.601L119.529 32.808H119.209V41.16H119.529V51.08H115.817ZM123.369 42.024C124.564 42.024 125.534 41.5867 126.281 40.712C127.028 39.816 127.401 38.6533 127.401 37.224C127.401 35.7733 127.028 34.6 126.281 33.704C125.534 32.808 124.564 32.36 123.369 32.36C122.196 32.36 121.225 32.808 120.457 33.704C119.71 34.5787 119.337 35.7413 119.337 37.192C119.337 38.6427 119.71 39.816 120.457 40.712C121.225 41.5867 122.196 42.024 123.369 42.024ZM141.279 45.32C139.743 45.32 138.399 44.9893 137.247 44.328C136.095 43.6453 135.188 42.696 134.527 41.48C133.887 40.264 133.567 38.8453 133.567 37.224C133.567 35.5813 133.887 34.152 134.527 32.936C135.188 31.6987 136.095 30.7387 137.247 30.056C138.399 29.3733 139.743 29.032 141.279 29.032C142.836 29.032 144.191 29.384 145.343 30.088C146.516 30.7707 147.423 31.7307 148.063 32.968C148.703 34.184 149.023 35.592 149.023 37.192C149.023 37.384 149.012 37.576 148.991 37.768C148.991 37.96 148.98 38.1307 148.959 38.28H136.831V35.304H146.207L145.439 37C145.439 35.528 145.098 34.3227 144.415 33.384C143.732 32.4453 142.698 31.976 141.311 31.976C140.052 31.976 139.05 32.3707 138.303 33.16C137.578 33.928 137.215 34.952 137.215 36.232V37.928C137.215 39.2507 137.578 40.3067 138.303 41.096C139.05 41.864 140.074 42.248 141.375 42.248C142.548 42.248 143.455 42.0027 144.095 41.512C144.756 41.0213 145.322 40.4133 145.791 39.688L148.447 41.288C147.743 42.6107 146.804 43.6133 145.631 44.296C144.458 44.9787 143.007 45.32 141.279 45.32ZM160.288 45.48C159.157 45.48 158.059 45.3093 156.992 44.968C155.947 44.6267 154.987 44.072 154.112 43.304C153.237 42.5147 152.501 41.448 151.904 40.104L154.56 38.6C155.307 39.944 156.128 40.9147 157.024 41.512C157.92 42.1093 159.04 42.408 160.384 42.408C161.685 42.408 162.667 42.12 163.328 41.544C164.011 40.968 164.352 40.1787 164.352 39.176C164.352 38.5787 164.203 38.056 163.904 37.608C163.627 37.16 163.125 36.744 162.4 36.36C161.675 35.976 160.651 35.624 159.328 35.304C157.664 34.8773 156.363 34.3547 155.424 33.736C154.507 33.096 153.867 32.3707 153.504 31.56C153.141 30.728 152.96 29.832 152.96 28.872C152.96 27.6773 153.237 26.6427 153.792 25.768C154.347 24.872 155.147 24.1787 156.192 23.688C157.237 23.176 158.475 22.92 159.904 22.92C161.611 22.92 163.019 23.2507 164.128 23.912C165.237 24.552 166.176 25.4373 166.944 26.568L164.256 28.296C163.595 27.4853 162.901 26.9093 162.176 26.568C161.472 26.2053 160.715 26.024 159.904 26.024C158.667 26.024 157.717 26.2693 157.056 26.76C156.416 27.2507 156.096 27.9547 156.096 28.872C156.096 29.6613 156.395 30.344 156.992 30.92C157.611 31.496 158.805 31.9973 160.576 32.424C162.368 32.872 163.765 33.4053 164.768 34.024C165.792 34.6213 166.507 35.3467 166.912 36.2C167.339 37.032 167.552 38.0347 167.552 39.208C167.552 40.3813 167.253 41.4373 166.656 42.376C166.059 43.3147 165.216 44.072 164.128 44.648C163.04 45.2027 161.76 45.48 160.288 45.48ZM177.861 45.32C176.261 45.32 174.874 44.9787 173.701 44.296C172.528 43.592 171.621 42.632 170.981 41.416C170.341 40.2 170.021 38.792 170.021 37.192C170.021 35.592 170.341 34.184 170.981 32.968C171.621 31.752 172.528 30.8027 173.701 30.12C174.874 29.416 176.261 29.064 177.861 29.064C179.376 29.064 180.752 29.48 181.989 30.312C183.226 31.1227 184.122 32.2107 184.677 33.576L181.637 34.856C181.296 33.96 180.784 33.288 180.101 32.84C179.418 32.3707 178.64 32.136 177.765 32.136C176.485 32.136 175.418 32.584 174.565 33.48C173.712 34.3547 173.285 35.592 173.285 37.192C173.285 38.792 173.712 40.04 174.565 40.936C175.418 41.8107 176.485 42.248 177.765 42.248C178.64 42.248 179.418 42.024 180.101 41.576C180.784 41.1067 181.296 40.424 181.637 39.528L184.677 40.808C184.101 42.1733 183.194 43.272 181.957 44.104C180.741 44.9147 179.376 45.32 177.861 45.32ZM190.654 29.384L191.422 33.608V45H188.222V29.384H190.654ZM190.942 34.92L190.174 34.568V32.232L190.462 31.88C190.676 31.496 191.006 31.0907 191.454 30.664C191.924 30.216 192.468 29.8427 193.086 29.544C193.705 29.224 194.334 29.064 194.974 29.064C195.294 29.064 195.593 29.0853 195.87 29.128C196.169 29.1707 196.393 29.2453 196.542 29.352V32.232H195.55C194.1 32.232 193.044 32.456 192.382 32.904C191.721 33.3307 191.241 34.0027 190.942 34.92ZM203.478 45H200.278V29.384H203.478V45ZM199.798 24.584C199.798 23.9653 199.979 23.464 200.342 23.08C200.726 22.6747 201.238 22.472 201.878 22.472C202.496 22.472 202.998 22.6747 203.382 23.08C203.766 23.464 203.958 23.9653 203.958 24.584C203.958 25.1813 203.766 25.6827 203.382 26.088C202.998 26.472 202.496 26.664 201.878 26.664C201.238 26.664 200.726 26.472 200.342 26.088C199.979 25.6827 199.798 25.1813 199.798 24.584ZM216.515 45.32C215.107 45.32 213.88 44.9893 212.835 44.328C211.79 43.6453 210.968 42.696 210.371 41.48C209.795 40.264 209.507 38.8453 209.507 37.224C209.507 35.5813 209.795 34.152 210.371 32.936C210.968 31.72 211.79 30.7707 212.835 30.088C213.88 29.4053 215.107 29.064 216.515 29.064C217.966 29.064 219.224 29.4053 220.291 30.088C221.379 30.7707 222.222 31.72 222.819 32.936C223.416 34.152 223.715 35.5813 223.715 37.224C223.715 38.8453 223.416 40.264 222.819 41.48C222.222 42.696 221.379 43.6453 220.291 44.328C219.224 44.9893 217.966 45.32 216.515 45.32ZM208.611 51.08V29.384H211.043L211.811 32.52H211.491V41.416H211.811V51.08H208.611ZM216.035 42.568C217.358 42.568 218.424 42.0773 219.235 41.096C220.046 40.1147 220.451 38.824 220.451 37.224C220.451 35.6027 220.046 34.3013 219.235 33.32C218.424 32.3173 217.358 31.816 216.035 31.816C214.734 31.816 213.678 32.3067 212.867 33.288C212.056 34.2693 211.651 35.5707 211.651 37.192C211.651 38.8133 212.056 40.1147 212.867 41.096C213.678 42.0773 214.734 42.568 216.035 42.568ZM232.956 45.288C231.591 45.288 230.503 44.8933 229.692 44.104C228.903 43.2933 228.508 42.0453 228.508 40.36V29.576V29.384L229.116 25.864H231.708V40.424C231.708 41.0213 231.857 41.4693 232.156 41.768C232.476 42.0667 232.871 42.216 233.34 42.216C233.703 42.216 234.023 42.1947 234.3 42.152C234.577 42.1093 234.823 42.056 235.036 41.992V44.968C234.759 45.0533 234.449 45.128 234.108 45.192C233.788 45.256 233.404 45.288 232.956 45.288ZM226.108 32.328V29.384H235.036V32.328H226.108Z" fill="white"/>
<defs>
<clipPath id="clip0_46_22">
<rect width="66" height="66" fill="white"/>
</clipPath>
</defs>
</svg>
