<svg width="62" height="62" viewBox="0 0 62 62" fill="none" xmlns="http://www.w3.org/2000/svg">
    <circle cx="31" cy="31" r="31" fill="#1DB954"/>
    <path d="M27.5 39.5V22.5C27.5 21.1193 26.3807 20 25 20C23.6193 20 22.5 21.1193 22.5 22.5V39.5C22.5 40.8807 23.6193 42 25 42C26.3807 42 27.5 40.8807 27.5 39.5Z"
          fill="#1A1A1A"/>
    <path d="M39.5 39.5V22.5C39.5 21.1193 38.3807 20 37 20C35.6193 20 34.5 21.1193 34.5 22.5V39.5C34.5 40.8807 35.6193 42 37 42C38.3807 42 39.5 40.8807 39.5 39.5Z"
          fill="#1A1A1A"/>
</svg>
