<!DOCTYPE svg PUBLIC "-//W3C//DTD SVG 1.1//EN" "http://www.w3.org/Graphics/SVG/1.1/DTD/svg11.dtd">

<!-- Uploaded to: SVG Repo, www.svgrepo.com, Transformed by: SVG Repo Mixer Tools -->
<svg fill="#" width="24px" height="24px" viewBox="0 0 24 24" xmlns="http://www.w3.org/2000/svg" stroke="#FAFAFA">

<g id="SVGRepo_bgCarrier" stroke-width="0"/>

<g id="SVGRepo_tracerCarrier" stroke-linecap="round" stroke-linejoin="round"/>

<g id="SVGRepo_iconCarrier"> <g data-name="Layer 2"> <g data-name="music"> <rect width="24" height="24" opacity="0"/> <path d="M19 15V4a1 1 0 0 0-.38-.78 1 1 0 0 0-.84-.2l-9 2A1 1 0 0 0 8 6v8.34a3.49 3.49 0 1 0 2 3.18 4.36 4.36 0 0 0 0-.52V6.8l7-1.55v7.09a3.49 3.49 0 1 0 2 3.17 4.57 4.57 0 0 0 0-.51z"/> </g> </g> </g>

</svg>